<?xml version="1.0" encoding="UTF-8" standalone="no"?>
<!-- Created with Inkscape (http://www.inkscape.org/) -->

<svg
   xmlns:dc="http://purl.org/dc/elements/1.1/"
   xmlns:cc="http://creativecommons.org/ns#"
   xmlns:rdf="http://www.w3.org/1999/02/22-rdf-syntax-ns#"
   xmlns:svg="http://www.w3.org/2000/svg"
   xmlns="http://www.w3.org/2000/svg"
   xmlns:sodipodi="http://sodipodi.sourceforge.net/DTD/sodipodi-0.dtd"
   xmlns:inkscape="http://www.inkscape.org/namespaces/inkscape"
   width="125"
   height="45"
   viewBox="0 0 125 45.000001"
   id="svg2"
   version="1.1"
   inkscape:version="0.91 r13725"
   sodipodi:docname="siscon_logo.svg"
   style="enable-background:new">
  <defs
     id="defs4" />
  <sodipodi:namedview
     id="base"
     pagecolor="#ffffff"
     bordercolor="#666666"
     borderopacity="1.0"
     inkscape:pageopacity="0.0"
     inkscape:pageshadow="2"
     inkscape:zoom="6.968"
     inkscape:cx="62.5"
     inkscape:cy="19.205511"
     inkscape:document-units="px"
     inkscape:current-layer="layer1"
     showgrid="true"
     inkscape:window-width="1366"
     inkscape:window-height="747"
     inkscape:window-x="0"
     inkscape:window-y="21"
     inkscape:window-maximized="1"
     units="px"
     showguides="true"
     inkscape:guide-bbox="true">
    <inkscape:grid
       type="xygrid"
       id="grid4163" />
  </sodipodi:namedview>
  <metadata
     id="metadata7">
    <rdf:RDF>
      <cc:Work
         rdf:about="">
        <dc:format>image/svg+xml</dc:format>
        <dc:type
           rdf:resource="http://purl.org/dc/dcmitype/StillImage" />
        <dc:title></dc:title>
      </cc:Work>
    </rdf:RDF>
  </metadata>
  <g
     inkscape:label="Layer 1"
     inkscape:groupmode="layer"
     id="layer1"
     style="display:inline"
     transform="translate(0,-1007.3622)">
    <g
       transform="scale(1.0481381,0.95407276)"
       style="font-style:normal;font-variant:normal;font-weight:bold;font-stretch:normal;font-size:31.74218941px;line-height:125%;font-family:'Nimbus Sans L';-inkscape-font-specification:'Nimbus Sans L, Bold';text-align:start;letter-spacing:0px;word-spacing:0px;writing-mode:lr-tb;text-anchor:start;fill:#7ca1d4;fill-opacity:1;stroke:none;stroke-width:1px;stroke-linecap:butt;stroke-linejoin:miter;stroke-opacity:1"
       id="text3336">
      <path
         d="m 18.55617,1076.4665 c 0,-2.1267 -0.476133,-3.5234 -1.618852,-4.793 -1.555367,-1.7141 -4.126484,-2.6343 -7.4594141,-2.6343 -5.5548832,0 -8.76084431,2.6025 -8.76084431,7.1099 0,3.5869 1.80930481,5.3327 6.50714881,6.2215 l 3.2377036,0.6348 c 3.174219,0.6031 4.34868,1.4919 4.34868,3.3647 0,1.9363 -1.777563,3.1107 -4.666102,3.1107 -3.2377035,0 -5.0470083,-1.3649 -5.2057192,-3.8408 l -4.63435968,0 c 0.28567971,4.9518 3.68209398,7.6499 9.58614118,7.6499 5.9675317,0 9.4909147,-2.7933 9.4909147,-7.4912 0,-3.6503 -1.841047,-5.5549 -6.126243,-6.3802 l -3.6186092,-0.6983 c -3.3964143,-0.6666 -4.3804221,-1.3332 -4.3804221,-3.0155 0,-1.7458 1.5553673,-2.8568 3.9995158,-2.8568 3.0155085,0 4.6978445,1.2697 4.8565555,3.6186 z"
         style="font-style:normal;font-variant:normal;font-weight:bold;font-stretch:normal;font-size:31.74218941px;line-height:125%;font-family:'Nimbus Sans L';-inkscape-font-specification:'Nimbus Sans L, Bold';text-align:start;writing-mode:lr-tb;text-anchor:start;fill:#7ca1d4;fill-opacity:1"
         id="path4282"
         inkscape:connector-curvature="0"
         sodipodi:nodetypes="ccssccssccssccsscc" />
      <path
         d="m 27.467176,1069.0392 -4.975966,0 0,23.5253 4.761329,0 z"
         style="font-style:normal;font-variant:normal;font-weight:bold;font-stretch:normal;font-size:31.74218941px;line-height:125%;font-family:'Nimbus Sans L';-inkscape-font-specification:'Nimbus Sans L, Bold';text-align:start;writing-mode:lr-tb;text-anchor:start;fill:#7ca1d4;fill-opacity:1"
         id="path4284"
         inkscape:connector-curvature="0"
         sodipodi:nodetypes="ccccc" />
      <path
         d="m 48.56246,1076.4665 c 0,-2.1267 -0.476132,-3.5234 -1.618851,-4.793 -1.555367,-1.7141 -4.126485,-2.6346 -7.459415,-2.6346 -5.554883,0 -8.760844,2.6028 -8.760844,7.1102 0,3.5869 1.809305,5.3327 6.507149,6.2215 l 3.237703,0.6348 c 3.174219,0.6031 4.34868,1.4919 4.34868,3.3647 0,1.9363 -1.777562,3.1107 -4.666102,3.1107 -3.237703,0 -5.047008,-1.3649 -5.205719,-3.8408 l -4.634359,0 c 0.285679,4.9518 3.682094,7.6499 9.586141,7.6499 5.967531,0 9.490914,-2.7933 9.490914,-7.4912 0,-3.6503 -1.841047,-5.5549 -6.126242,-6.3802 l -3.61861,-0.6983 c -3.396414,-0.6666 -4.380422,-1.3332 -4.380422,-3.0155 0,-1.7458 1.555367,-2.8568 3.999516,-2.8568 3.015508,0 4.697844,1.2697 4.856555,3.6186 l 4.443906,0 z"
         style="font-style:normal;font-variant:normal;font-weight:bold;font-stretch:normal;font-size:31.74218941px;line-height:125%;font-family:'Nimbus Sans L';-inkscape-font-specification:'Nimbus Sans L, Bold';text-align:start;writing-mode:lr-tb;text-anchor:start;fill:#7ca1d4;fill-opacity:1"
         id="path4286" />
      <path
         d="m 72.145914,1077.2601 c -0.158711,-1.9998 -0.571359,-3.2695 -1.555367,-4.5709 -1.777563,-2.3489 -4.63436,-3.6503 -8.094259,-3.6503 -6.538891,0 -10.601891,4.6661 -10.601891,12.1572 0,7.4277 4.031258,12.0938 10.474923,12.0938 5.745336,0 9.586141,-3.3329 9.871821,-8.6339 l -4.63436,0 c -0.28568,2.952 -2.158469,4.6344 -5.110493,4.6344 -3.682094,0 -5.840562,-2.9838 -5.840562,-8.0308 0,-5.1105 2.253695,-8.1577 5.999273,-8.1577 1.650594,0 3.015508,0.5713 3.90429,1.6823 0.507875,0.6348 0.761812,1.2379 1.047492,2.4759 l 4.539133,0 z"
         style="font-style:normal;font-variant:normal;font-weight:bold;font-stretch:normal;font-size:31.74218941px;line-height:125%;font-family:'Nimbus Sans L';-inkscape-font-specification:'Nimbus Sans L, Bold';text-align:start;writing-mode:lr-tb;text-anchor:start;fill:#7ca1d4;fill-opacity:1"
         id="path4288" />
      <path
         d="m 85.815889,1069.0389 c -3.237704,0 -5.904048,1.0792 -7.872063,3.2059 -2.063243,2.222 -3.237704,5.4597 -3.237704,8.9196 0,3.4599 1.174461,6.7293 3.237704,8.9195 1.999758,2.1585 4.602617,3.206 7.903805,3.206 3.301188,0 5.904047,-1.0475 7.903805,-3.206 1.999758,-2.1267 3.237703,-5.4914 3.237703,-8.7608 0,-3.6186 -1.174461,-6.8563 -3.237703,-9.0783 -2.0315,-2.1902 -4.602617,-3.2059 -7.935547,-3.2059 z"
         style="font-style:normal;font-variant:normal;font-weight:bold;font-stretch:normal;font-size:31.74218941px;line-height:125%;font-family:'Nimbus Sans L';-inkscape-font-specification:'Nimbus Sans L, Bold';text-align:start;writing-mode:lr-tb;text-anchor:start;fill:#7ca1d4;fill-opacity:1"
         id="path4290"
         inkscape:connector-curvature="0"
         sodipodi:nodetypes="scscscscs" />
      <path
         d="m 114.33128,1092.5598 4.76133,0 0,-23.14 -4.76133,0 0,15.7441 -9.17349,-15.7441 -4.8883,0 0,23.14 4.76133,0 0,-15.998 9.30046,15.998 z"
         style="font-style:normal;font-variant:normal;font-weight:bold;font-stretch:normal;font-size:31.74218941px;line-height:125%;font-family:'Nimbus Sans L';-inkscape-font-specification:'Nimbus Sans L, Bold';text-align:start;writing-mode:lr-tb;text-anchor:start;fill:#7ca1d4;fill-opacity:1"
         id="path4292" />
    </g>
    <g
       transform="matrix(0.04174427,0,0,0.04174427,77.688428,1021.0051)"
       id="g5411">
      <path
         style="fill:#ffffff;fill-opacity:0.94117647;fill-rule:nonzero;stroke:none"
         d="m 296.24831,15.011262 -5.04506,0.897587 2.07374,0.897587 -3.5594,-0.309513 0.30951,0.619026 2.66181,0 1.17615,0.588074 -3.83796,-0.309513 3.24989,0.588075 -1.48566,0 -0.58808,-0.278562 -1.79517,0 2.84751,0.557123 1.0214,0.619026 -5.35458,-0.588075 2.97133,1.176149 -2.66181,-0.278561 0,0.588074 -1.79518,-1.176149 -2.07373,0.866636 2.97132,0.897587 -2.66181,-0.588074 -1.2071,0 1.2071,1.485661 -1.48566,-0.309512 0.89759,0.897587 -1.2071,-0.588075 -1.48567,1.485662 0.58808,0.309513 2.38325,-0.309513 -0.27856,2.073736 -2.69277,0.309513 -2.97132,1.764223 4.17842,1.2071 2.97133,-0.309513 0.27856,0.588074 -2.97132,0 2.97132,0.309513 -5.04506,0.309513 3.86891,0.588074 -1.48566,0.588074 1.48566,0.588075 2.38325,0.309513 -0.89759,-0.588075 2.07374,0.278562 1.48566,-0.897587 2.97132,0.309512 1.48566,0.588075 6.53072,2.383248 -0.58807,1.176149 1.17615,-0.588074 2.69276,2.692761 2.97132,0.866636 -1.79517,0.309513 1.48566,0 0,1.176149 0.58807,-0.866636 -0.86663,1.485661 2.97132,0.278562 -1.2071,-2.073736 1.48566,1.485661 2.07374,-0.309512 -1.17615,0.897587 2.07374,-0.278562 -0.89759,0.866636 1.2071,-0.588074 -0.58808,0.588074 0.58808,0 3.24988,1.485662 -4.14747,-0.588075 -2.07373,0.588075 4.45698,1.2071 2.97132,-0.588075 0,0.278562 0.58808,2.073736 1.79517,-0.278562 0,0.897587 -1.79517,-0.619025 2.07373,1.485661 -0.27856,0 0,1.2071 2.07374,0.278562 -2.07374,0 -0.61902,0.619025 2.97132,-0.309513 -4.73555,1.795175 3.86891,-0.309513 -3.28083,0.897587 3.28083,0.588074 -1.79517,0.588075 2.07374,0.309513 1.48566,-1.485662 1.2071,0.278562 -3.59035,2.692761 2.97132,-0.588074 -1.76422,1.176148 1.76422,0.897588 1.2071,-1.485662 1.76422,0.278562 -2.97132,1.485661 1.2071,-0.278561 0.58808,1.485661 1.17614,-0.588074 -0.86663,0.866636 1.17615,1.485661 1.17615,-1.764223 -1.48567,-1.2071 4.17843,2.104687 -1.23805,-0.278561 -2.04279,1.145197 2.97132,-0.278561 -2.38324,0.588074 1.2071,0.309513 -0.58808,0.866636 2.07374,-0.278562 -0.89759,0.897587 2.07374,-0.309513 -1.76423,0.309513 2.3523,0.278562 0.30951,1.2071 0.58808,-0.897587 0,1.764223 2.38325,0.309512 0,1.176149 1.17614,-0.588074 -0.58807,0.897587 0.89759,-0.588074 0,0.897587 1.17615,0 -1.17615,0.588074 2.07373,-0.309513 -1.17615,0.588075 2.38325,-0.278562 1.48566,1.485662 3.83796,-1.795175 -0.86663,1.795175 0.86663,-1.2071 0,1.485661 0.89759,-0.866636 0.89759,1.176149 0.27856,-1.176149 0.30951,2.073736 0.30951,-1.485661 0.86664,1.764223 0.30951,-1.485662 2.66181,0.619026 -3.24988,-0.897587 2.38325,-0.588075 -1.79518,-0.619025 0.89759,-0.866636 -1.79517,-0.619026 1.2071,-0.866636 -1.48567,0 1.17615,-0.619025 -1.17615,0 0.58808,-0.866636 -2.66181,-1.2071 1.76422,0.309513 -2.66181,-0.897588 2.07374,-0.588074 -1.48566,-1.2071 1.76422,0.309513 -2.07374,-0.897587 1.79518,0.309513 -1.48566,-0.309513 1.17614,-0.588075 -1.76422,-0.588074 1.76422,0.278562 -1.17614,-1.176149 -1.79518,0 1.48566,-0.897587 -3.24988,-1.764223 1.76422,0.278561 -0.86663,-1.485661 -0.30952,-0.278562 2.38325,-0.619025 -1.79517,-2.073736 1.2071,0 0.58807,1.485661 1.17615,0 -1.17615,-0.897587 0.89759,0.619026 1.17615,-1.2071 -1.17615,-0.588075 1.76422,0 -2.38325,-3.86891 0.61903,-0.897587 -2.97132,-1.485661 2.97132,0.897587 1.48566,-0.588075 -0.89759,-0.588074 1.48566,0.278562 1.48567,-2.073736 -1.2071,-4.147472 -3.83796,0 -0.30952,1.485662 0,0.278561 -1.17614,0 -0.61903,0 0.61903,-1.485661 -2.38325,0.897587 -1.2071,-1.764223 1.79517,0 0,-0.897587 -3.5594,0.278561 0.27857,-0.866636 -1.76423,-0.309513 5.35457,0.309513 4.45699,1.485662 -0.89759,-0.897587 1.48566,0.588074 0.58808,-0.309513 -2.66181,-0.866636 -1.2071,-0.897587 -0.58808,0.278562 -0.30951,-0.866636 -0.58807,0.588074 -0.58808,-0.588074 -3.5594,-0.619026 0.27857,0.897587 -0.58808,-0.588074 -0.89759,0.309513 0.89759,-0.619026 -1.48566,-0.588074 -0.27856,0.897587 -1.79518,-0.309513 1.17615,-0.866636 -2.35229,0.278562 0.58807,-0.278562 -1.48566,-0.309513 1.76422,0 0,-0.897587 -2.3523,-0.278561 2.66181,0.278561 -0.89758,-0.588074 2.07373,0 -1.48566,0.309513 2.69276,0.278561 0.58808,-0.897587 -1.48566,-0.588074 -1.79518,0 1.79518,0.588074 -2.07374,-0.588074 -0.55712,-0.278562 1.45471,-0.619025 0.27856,0 -0.58808,-0.588075 -1.17614,0 -0.89759,0.309513 -1.2071,-0.897587 -1.76422,0.309513 1.17614,-0.619026 0.30952,0 0.58807,0 -2.38325,-1.176149 -0.58807,0 -1.79518,0.309513 0.61903,-0.897587 -0.30951,0 -1.17615,0.278562 -2.38325,-0.588075 1.17615,-0.588074 0.89759,-0.309513 -2.38325,-0.866636 -1.17615,0.278562 -0.89759,0 0.30951,-0.278562 0,-0.309513 -0.61902,0 -0.27856,0 -1.2071,-0.309512 0.89758,0.897587 -1.76422,-0.897587 -2.38325,-1.485662 -3.28083,-1.764223 0,0.897587 -1.48567,-0.309513 0,-0.309512 0,-1.176149 -1.48566,0.588074 -0.58807,0.309513 0,-0.309513 0.89759,-1.176148 -2.97133,-1.2071 -2.07373,0.309512 1.48566,0.897588 -0.89759,0 -0.58807,0.278561 2.66181,1.795174 -5.04506,-2.383248 0.58807,1.485661 -1.48566,-0.897587 -2.66181,1.2071 -0.61902,-0.588074 2.69276,-0.897587 -0.30952,-0.897588 -2.38324,0.309513 -1.17615,-0.619025 -2.38325,1.795174 -0.58808,-0.897587 2.07374,-0.897587 z m 33.24168,41.938986 0.031,-0.03095 -1.48566,-0.309512 1.45471,0.340464 z m -7.98543,-5.07601 -2.07374,0.278561 1.17615,0.309513 -0.27856,0.588074 1.17615,-1.176148 z m -1.76423,-4.178423 -2.97132,0 2.3523,0.309512 -2.07374,0 0.58807,1.485662 2.10469,-1.795174 z m 0,-1.485662 -2.38325,0 -1.2071,1.2071 3.59035,-1.2071 z m -46.67453,-27.918056 -1.48566,0.309513 -1.48566,0.278562 1.2071,1.2071 -2.97133,-0.897587 -1.2071,0.278561 1.48567,0.619026 -2.07374,-0.309513 -2.97132,0.588074 1.79517,0.309513 -0.89759,0.278562 2.07374,-0.278562 -1.76422,0.897587 3.55939,-0.309513 -3.55939,0.588075 1.17615,0.309513 4.14747,-0.897588 -2.66181,0.897588 -0.30952,0.278561 2.10469,-0.588074 1.17615,0.309513 -1.17615,0.278561 1.76422,0 0.58808,-0.588074 2.38325,-0.897587 -1.48566,0.897587 1.79517,0 -2.69276,0.588074 -2.3523,0.309513 2.07374,1.485661 -2.69276,-1.176148 -2.07374,0 2.38325,2.073736 -1.48566,0.278561 2.97132,-0.278561 -1.48566,0.588074 0.58807,0.588074 -2.38325,-0.897587 -1.48566,0.309513 -0.86663,1.176149 1.48566,-0.278562 0.27856,0.278562 0.89759,-0.866636 -0.30952,2.073736 2.38325,-0.897588 -2.38325,1.485662 -3.24988,-1.176149 1.17615,1.485662 -3.5594,0.866636 0.89759,0.619025 0.58807,-0.897587 0.58808,0.897587 0.30951,-0.619025 0.58807,0.619025 0.30952,-0.619025 1.17615,0.897587 1.17614,-0.897587 1.2071,0.619025 0,-0.619025 1.17615,0.619025 -0.58807,-0.897587 1.79517,1.485662 1.17615,-0.309513 1.79518,-0.278562 0.27856,-1.2071 -2.07374,-0.278561 -1.79517,0 -0.27856,-1.2071 2.07373,0.588074 1.17615,0.309513 0.61903,-1.485662 2.07373,0 -0.89759,-0.309512 1.48567,-0.278562 -1.48567,-0.309513 1.79518,-0.278561 -3.86891,-0.897587 3.86891,0 -3.28084,-0.309513 4.14747,-0.588075 -1.17614,-0.588074 2.38324,0.278562 0.58808,-0.866636 0.30951,0 -0.89759,-0.619026 1.17615,0.309513 2.38325,-2.073736 -3.5594,0.588074 2.07374,-0.588074 -2.07374,-0.309513 2.38325,0 1.76423,-0.897587 0.30951,-0.588074 -2.07374,-0.588075 -2.69276,0.588075 0.89759,-0.588075 -6.25216,0 z m -10.67819,2.661811 -2.07374,0.897587 0.86664,0.309513 -2.3523,0.278561 1.17615,0.897587 -1.48566,-0.588074 -0.30952,0.588074 1.79518,0.309513 -1.17615,0.897587 3.83796,0.278562 -3.5594,0.309513 2.07374,0.897587 -1.48566,0 0.61902,0.588074 2.3523,0.278562 0,-0.866636 0.61903,0.866636 1.17614,-1.764223 0.30952,0.897587 2.66181,-1.2071 -0.58808,-0.588075 -1.48566,0 0.27856,-1.485661 -0.58807,0.588074 -2.66181,-2.383248 z m -11.88529,2.692761 -0.58808,1.176149 1.17615,0 -1.79517,0.897587 1.48566,0 2.10468,0.897587 0.58808,0.278562 0.27856,-1.485662 0,-0.278561 -3.24988,-1.485662 z m -5.35458,0.588074 -2.97132,0.588075 3.5594,0 -0.58808,-0.588075 z m 85.85886,0.309513 1.2071,0.866636 0.58807,-0.588074 -1.79517,-0.278562 z m -75.45923,0.588075 -0.58807,1.485661 1.17615,0.588074 0.30951,0 1.48566,-1.176148 -2.38325,-0.897587 z m -14.5471,0.278561 -0.89758,0.897587 1.76422,0.309513 1.79517,-0.897587 -2.66181,-0.309513 z m -6.56167,0.309513 -1.48566,0.588074 -5.32362,1.485662 2.3523,-0.278562 0,0.588075 0,0.278561 4.45698,-1.485661 -0.86663,0.897587 4.14747,-1.485662 -0.89759,-0.588074 -2.38325,0 z m 97.46559,1.176149 1.2071,0 0,0.588074 -1.2071,-0.588074 z m -147.08049,0.309512 -2.07374,0.897588 0.58808,-0.309513 0.58807,-0.278562 -1.76422,0 -1.48566,0.278562 -4.7665,1.2071 -0.58808,-0.897587 -2.66181,0.897587 -2.38325,2.352297 -2.38324,0.897587 0.30951,1.2071 -1.91898,0.804734 1.29995,-1.114247 -3.24988,2.383249 -0.89759,-1.2071 2.07374,-1.176149 -4.14747,0 -1.79518,1.795175 -0.27856,-0.309513 -2.38325,1.485661 -0.30951,1.795175 1.2071,-0.309513 -1.2071,0.588074 2.38325,-0.588074 -0.30952,0.897587 -1.48566,0.278562 -2.07373,1.485661 -1.48566,0.619026 -0.27857,-0.619026 -2.38324,0.619026 0.58807,-0.897587 -7.42831,2.971323 -1.79517,1.176148 0.61902,0.309513 -1.2071,0.278562 -0.0619,0.340464 -1.42376,0.278561 -0.58807,0.588075 1.48566,-0.309513 0.49522,-0.495221 -0.18571,0.804734 -0.89759,0 -2.69276,1.764223 1.79518,0.309512 -3.86891,2.971323 -2.07374,0.897588 2.38325,-0.309513 -0.58807,0.588074 -1.48567,2.104687 2.97133,-1.795174 -1.79518,1.485661 2.38325,-0.309512 -2.97132,1.2071 -3.28084,2.383248 -5.35457,1.485662 -0.86663,0 -1.79518,1.485661 -0.30951,-1.2071 -4.73555,2.073736 1.17615,-0.278561 -0.27856,0.278561 1.48566,-0.866636 -0.61902,0.866636 2.10468,-1.176149 -0.89758,0.897588 2.25944,-0.278562 -0.77378,0.557123 10.67819,-3.559397 2.38325,-0.278562 3.28083,-1.2071 0,-0.897587 1.48566,-1.176149 10.09012,-3.280835 1.79518,0.309512 -2.07374,0.588075 -0.30951,1.485661 2.66181,-0.588074 -1.76422,0.897587 1.48566,-0.588074 -0.89759,0.866636 2.07374,-0.278562 -1.17615,0.278562 0.27856,0.619025 -0.27856,0 -1.2071,1.176149 1.2071,0.309513 -0.89759,1.485661 3.28084,0.866636 -0.30952,1.795174 0.89759,-0.309512 1.17615,-0.588075 -1.17615,0.619026 1.48566,-0.309513 0,0.897587 -1.48566,0.588075 1.17615,-1.176149 -2.07374,0.866636 -0.30951,5.354571 1.48566,-0.278561 0.89759,-2.383249 0,1.176149 1.2071,-0.897587 -1.79518,2.104687 0.58808,0.866636 3.5594,-3.559398 -2.66181,3.280836 0.30951,0.897587 1.76422,-0.897587 -2.07373,1.176149 0.89758,1.176149 -1.2071,0 0.30952,1.2071 -0.58808,-1.2071 0,1.485661 -1.48566,0.309513 0.27856,3.86891 -2.97132,1.485662 3.59035,-0.897588 -0.61903,1.176149 -3.24988,2.971323 2.97132,-1.485661 2.07374,-1.764223 -2.97133,2.66181 0.58808,0.588074 -2.07374,0.619026 -0.27856,1.392807 0.58807,0.371416 -1.79517,0.588074 -0.30951,2.383249 2.97132,-1.764223 -1.33091,1.330905 -0.43331,-0.154757 -0.30952,3.280836 -2.07373,1.176149 1.17615,-0.588074 -0.58808,1.176148 2.97133,-1.176148 -3.86891,2.383248 -0.58808,1.485662 1.48566,-0.619026 -2.07373,0.897587 1.48566,0.309513 -2.07374,0.278562 2.38325,0.309512 -2.10469,0.309513 2.38325,0.866636 -0.89758,0.309513 0.30951,0.588074 2.07373,-0.588074 -2.38324,0.897587 0.61902,0.897587 1.17615,-0.897587 -0.89759,0.897587 0.89759,0.278562 2.07374,-1.764223 -2.07374,2.073736 2.07374,-0.309513 -2.38325,1.485661 0.61902,1.2071 1.17615,-0.619025 0.58808,-0.588075 0,0.588075 -0.27857,1.2071 -1.48566,0.278561 2.3523,0 -1.76422,2.383253 0.89758,1.2071 -3.28083,5.32362 1.17615,-2.66181 -2.66181,2.07373 2.66181,-2.66181 -3.83796,-1.79517 -2.10469,5.35457 0.89759,0 -2.38325,2.66181 -8.91397,12.50432 -1.76422,5.63313 -2.97133,3.86891 -1.2071,6.53072 0,4.14747 2.10469,0 -0.30951,2.69276 -0.58808,-1.79517 -1.2071,2.69276 1.48567,9.50204 -1.17615,2.38325 1.79517,0.86664 3.83796,2.38325 2.10469,3.86891 0.58807,15.16613 0,0.86663 3.86891,6.56167 -1.48566,2.3523 0.86664,1.48566 -3.5594,-1.17615 3.5594,5.35457 1.79517,-0.89758 2.38325,4.45698 -1.2071,5.63314 5.66408,6.56167 0.58808,3.24988 2.38325,-1.17615 -0.58808,-3.86891 -2.97132,-1.79517 -0.61903,-10.09012 -2.97132,-6.25216 0.30951,-2.97132 -3.86891,-7.70687 1.2071,-8.3259 5.04506,3.5594 0.27856,5.66409 0.30952,4.73554 2.38325,5.04506 2.07373,0.61903 -0.58807,2.66181 4.14747,5.04506 -1.76422,2.69276 4.45698,3.24988 0,1.79518 6.22121,8.91397 1.79517,6.84023 -1.79517,2.97132 0.89758,1.17615 -1.79517,0.58807 0.61903,1.79518 6.80928,8.60446 6.25216,2.38324 3.24988,3.5594 4.45699,2.07374 0,-2.07374 0.30951,-0.58807 -0.27856,0.58807 0,2.07374 13.95902,6.84023 10.09012,-1.76422 12.47337,10.9877 12.78288,4.14747 -1.17615,-0.58807 5.94265,-0.58807 0.27856,2.38324 -1.76423,0 9.19253,8.91397 -1.48566,0.58808 1.48566,0.58807 -0.27856,3.5594 0,0.58807 2.66181,1.48566 1.2071,-1.17614 -0.89758,-0.89759 -1.2071,-1.17615 2.38324,1.17615 0.30952,0.30951 5.04506,4.45699 0.30951,2.66181 1.17615,0.30951 -0.30952,-1.79518 2.10469,3.5594 0.86664,-1.48566 4.45698,0.61903 0.89759,2.35229 2.38325,-0.86663 0.58807,3.24988 2.07374,-0.27856 2.10469,-1.2071 -2.10469,-3.24988 2.10469,-1.48567 4.14747,-2.38324 3.28083,3.24988 1.48566,-0.27856 -1.48566,2.07373 5.04506,6.53073 -0.89759,10.70914 2.38325,1.48566 -0.58807,1.17615 -2.97132,4.45698 -3.59035,1.2071 0,2.97133 -2.3523,0.58807 0.58807,2.66181 -5.04505,1.2071 -0.30952,0 0.30952,1.76422 0.27856,1.2071 -0.27856,0.27857 -2.38325,2.07373 1.17615,1.48566 -2.97133,1.48566 0,5.94265 2.97133,1.79517 1.2071,-1.48566 0.58807,-0.89758 0.89759,1.79517 -1.48566,3.24988 0,0.30952 -5.94265,3.86891 2.07374,6.22121 -1.48567,1.48566 5.35458,3.28083 4.73554,6.25216 3.5594,7.70687 2.38325,5.66408 6.53072,8.60446 -0.86664,2.38325 2.07374,2.97132 3.24988,2.97133 16.06372,7.11879 4.73554,4.45698 0.61903,6.25216 -0.30951,5.63314 -2.97133,8.01638 0,6.84023 -5.63313,12.78288 0.58807,3.28084 -0.30951,0.27856 -1.76422,2.38325 -0.61903,9.81155 -7.11879,10.98771 -2.07374,0.89759 1.17615,5.94264 -3.24988,4.45699 1.17615,1.48566 -0.89759,0.58807 2.97132,-0.89759 1.2071,0.30952 1.17615,-0.58808 -2.38325,1.48566 1.79518,0.58808 -0.58808,0.89759 -1.2071,-0.30952 0.89759,0.58808 -0.89759,-0.27856 -1.48566,2.66181 1.2071,0.89758 -2.10469,0.89759 2.38325,0.89759 -1.76422,0.86663 -1.79518,0.89759 2.38325,0.30951 -2.38325,0.27856 -0.30951,0.89759 1.48566,-0.58807 -2.07373,2.38325 -0.58808,-0.89759 -0.30951,0 -1.17615,0 0.89759,-0.89759 -1.2071,0.58808 -0.86664,-0.58808 -1.2071,0.30951 1.79518,0.27857 -1.2071,0.89758 0,0.89759 2.10468,0 0.58808,0.89759 -1.79518,0.58807 1.79518,0 -2.69276,0.58808 3.28083,-0.30952 1.17615,0.89759 -1.17615,0 0.58808,0.61903 -3.86891,-0.61903 2.38325,0.89759 -1.76423,0.58807 1.17615,0.30952 -1.48566,1.48566 1.17615,-0.58808 1.2071,1.17615 -2.07374,0 0.58808,0.58808 0.58807,0.58807 -2.66181,0 2.07374,0.30951 -0.30952,0.89759 1.48567,-0.89759 0.58807,0.58808 -2.66181,0.58807 1.48566,0.30951 -0.89759,0.89759 1.48567,0.89759 0,-0.89759 0.58807,0.89759 -0.27856,-0.89759 2.07373,0.27856 -2.38324,-0.58807 1.48566,-0.58808 -0.58808,0.58808 1.79518,0.58807 -1.79518,1.48566 0.30952,0 3.55939,0 0.27856,0.89759 -2.07373,0.89759 0.58807,-0.58808 -1.76422,0.27857 2.97132,0.89758 1.76423,-2.07373 5.07601,-1.17615 2.35229,0 -1.17615,-1.2071 -1.79517,0 1.79517,-0.27856 -0.89758,-0.89759 3.55939,-2.07374 -0.27856,-0.30951 -0.30951,-0.58807 0.58807,0.58807 0.30952,0.30951 1.17615,-0.30951 1.79517,-2.07373 6.53072,-2.97133 0.58807,-1.79517 -2.97132,-0.27856 -2.07373,-2.10469 2.97132,-2.07374 4.7665,-0.89758 1.76422,-3.24989 3.86891,-2.07373 -2.07374,-0.61903 2.07374,-0.58807 0.58807,0.89758 2.07374,-0.89758 0,-1.48567 -2.66181,1.2071 -1.79517,-0.89758 1.2071,-3.5594 3.86891,0.86664 5.04505,-0.86664 1.76423,-4.7665 0.89758,0.30952 -0.58807,-1.79518 3.86891,0.30951 4.14747,-0.89758 5.35457,-1.2071 3.5594,-1.48566 4.45699,-4.14748 0.30951,-1.48566 -1.79518,-0.89759 1.48567,-2.38324 -4.14748,-2.07374 1.79518,-4.45698 -0.61903,2.69276 1.48566,1.48566 5.35458,0.86663 7.4283,-1.48566 7.14975,-5.94264 2.66181,-4.45699 5.63313,-5.32362 -0.27856,-0.89758 2.07374,1.17614 -7.1188,6.53072 5.63314,-4.14747 3.55939,-4.14747 2.38325,-2.69276 4.14747,-3.24989 2.69276,-5.07601 -0.30951,-2.97132 2.38325,-2.97132 -1.2071,-0.58808 1.79517,0.30952 3.28084,-3.5594 5.04506,-3.5594 3.24988,-0.61902 4.45699,-4.14747 2.97132,0.30951 2.10469,-2.10469 -0.30951,1.2071 3.55939,-0.58807 0.58808,-1.79518 3.86891,-2.66181 0.30951,-1.79517 5.35457,-7.1188 0,-0.031 0.89759,-1.17615 1.48566,-5.04506 2.66181,-3.28083 4.7665,-20.48975 0.86663,-1.2071 0.30952,1.79517 1.79517,-1.79517 8.01638,-12.75193 4.73555,-8.04733 0.89759,-5.63313 -0.89759,-6.84024 -0.86664,-1.48566 -5.07601,0.58808 -4.45698,-4.73555 -5.04506,-2.97132 -8.01638,1.48566 -4.45699,-1.48566 -5.35457,5.35457 0.30951,-3.28084 1.76423,-1.48566 -2.66181,0.89759 2.07373,-2.07374 -1.17615,-2.69276 -1.79517,2.07374 -0.27856,-2.07374 -0.61903,0.89759 0.30952,-1.17615 -0.89759,0.86664 -1.17615,-1.48567 -0.58807,1.2071 -0.30952,-1.79517 -0.58807,0.89759 -3.5594,-1.79518 -0.30951,1.2071 -2.66181,-0.30951 -1.79518,3.86891 1.79518,0 -1.48566,1.17615 -0.89759,-1.48566 -3.28084,5.07601 0.58808,-3.28084 -4.45699,1.79518 6.25216,-2.97133 2.07374,-5.66408 -8.01638,0 -1.79518,4.45698 0,-2.07373 -1.76422,2.38325 -0.30951,-2.38325 -1.48567,2.38325 1.48567,-4.17843 5.66408,-6.53072 -0.89759,0 0.89759,-2.38325 -3.59035,-1.48566 -2.3523,-9.50204 -0.89758,-0.58808 -0.58808,1.79518 -2.69276,-3.86891 -8.01638,-3.28084 -12.47337,1.48566 -5.35457,-4.45698 -1.17615,2.38325 0.58808,-4.45699 -2.69276,-2.66181 -4.14748,-2.07373 0,-0.031 -0.89758,-0.58808 -2.97133,0.30951 0,-3.86891 -3.55939,-1.79517 -2.97133,0.61903 -0.89758,-0.89759 -1.76423,-1.48566 4.45699,-2.07374 -10.39963,1.17615 2.66181,0.58807 -6.25216,2.38325 -5.32362,-2.38325 -8.3259,1.2071 -1.48566,-3.28083 -5.35457,-1.17615 -2.07374,-3.28084 -0.89758,2.66181 2.07373,-0.27856 0,1.17615 -1.48566,-0.58807 -6.53072,3.86891 2.07374,3.55939 0.58807,1.48567 0,1.79517 -2.97132,1.48566 -2.07374,-3.59035 0.58808,-0.86663 1.79517,-3.28084 -1.79517,-4.14747 3.86891,-2.38325 -2.66181,-1.79517 -7.14975,5.66408 -3.83796,0 -0.61902,1.48566 -2.66181,-0.30951 -1.79518,1.48566 -2.07373,2.97132 0.30951,0.58808 0.27856,2.69276 -5.94265,4.14747 0.61903,2.97132 -5.07601,-5.35457 -5.04506,-2.07373 -2.97132,-0.30952 -1.76422,0.89759 -5.07601,2.97132 -3.5594,-1.76422 0.30951,1.17615 -2.07373,-0.30951 -3.28084,-4.73555 -4.14747,-6.25216 3.24988,-13.95903 -0.58807,-4.45698 -7.42831,-3.5594 -13.95903,1.17615 -3.55939,-1.17615 3.55939,-4.76649 0.58808,-6.53072 -1.17615,0 1.48566,-2.38325 0.86664,3.28083 2.10468,-6.53072 -1.48566,-0.30951 4.45699,-7.70687 -5.66409,-1.48566 -9.50204,2.3523 -2.07374,7.73782 -4.17842,4.14747 -3.24989,-1.17615 -9.22348,2.38325 -2.97132,-3.28084 -2.97132,-0.27856 -6.22121,-15.7542 -0.30951,-2.69276 1.17614,-8.60446 0.61903,-3.28083 1.76422,-0.86664 -0.89758,2.07374 2.10468,-4.45699 -0.30951,-5.94265 -1.17615,0 1.48566,-0.30951 1.17615,-3.5594 3.28084,-1.17614 -0.89759,-1.2071 2.66181,0.58807 -0.89759,0.61903 4.7665,-2.38325 0.89759,-2.97133 1.76422,0.89759 -1.17615,0.86664 3.86891,-1.17615 5.94265,0.89759 2.07373,-1.2071 3.5594,3.59034 1.79518,-1.2071 1.17615,0.89759 -0.27857,-1.79517 1.76423,0.30951 1.2071,2.66181 1.76422,-1.17615 -2.66181,-1.79517 2.07374,-1.48566 -1.79518,-0.27857 -0.27856,-0.30951 -0.49522,0 -2.19754,-0.89759 9.22348,0 0.58807,-2.07373 0.89759,1.79517 -1.17615,0.58808 4.14747,-1.48566 -0.58807,0.89758 3.86891,-0.30951 -1.2071,0.30951 3.5594,0.27856 0.61902,1.48567 0.27856,1.48566 3.28084,-1.48566 1.48566,-0.58808 1.23805,0.61903 0.83569,0.55712 4.14747,4.7665 -0.86664,4.45698 1.76423,-0.30951 -1.17615,2.10469 1.17615,2.35229 1.48566,-0.27856 1.2071,5.04506 2.97132,1.48566 -0.30951,2.07374 2.07373,-0.27856 0,0.86663 2.38325,-8.29494 -4.76649,-14.26854 -1.76423,-5.35457 3.86891,-4.45699 -0.61902,-1.17615 0.89758,0.86664 2.38325,-2.07374 4.7665,-4.45698 9.19253,-5.04506 -2.66181,-0.58807 2.07374,-0.89759 -2.07374,-1.17615 3.24988,0.86664 1.48567,-1.48567 -0.58808,-1.48566 -0.58807,1.48566 0,-1.48566 -2.66181,0.30952 1.76422,-1.79518 1.79517,1.2071 -0.89758,-2.97132 1.79517,4.14747 -1.79517,-5.04506 -3.86891,-1.17615 2.07373,0.58808 -1.48566,-1.79518 1.2071,1.2071 0.58808,-1.48566 0.30951,-1.2071 -4.17842,-2.07373 0.30951,-1.17615 3.5594,2.66181 -1.48567,-5.35457 2.66181,-1.17615 -1.48566,2.97132 2.69276,3.5594 -0.89758,3.86891 2.97132,-5.66409 -2.07374,-5.32362 2.66182,2.97133 2.38324,-3.28084 -0.89758,-3.28084 2.38325,-2.07373 7.11879,-1.48566 0,-2.07374 0.89759,1.48566 4.17842,-0.89759 -0.61903,-1.48566 -0.58807,1.2071 -2.97132,-2.69276 2.07373,-5.35457 1.48566,-0.27856 -0.27856,-1.2071 2.07374,0.30951 0.89759,-2.97132 0,1.48566 1.76422,-1.17615 0.89759,1.17615 3.28083,-2.38325 -1.2071,-1.48566 2.38325,0.61903 6.25216,-3.59035 -1.48566,2.10468 4.73554,-0.30951 -1.76422,1.48566 -1.48566,-1.17615 -4.45699,3.5594 0.27857,2.97132 2.69276,1.17615 2.66181,-4.76649 2.07373,0.30951 -0.27856,-1.17615 7.1188,-2.07374 0.89758,-0.61902 -3.55939,-2.07374 -4.17843,0.89759 -5.04505,-2.07374 -0.89759,-2.69276 -1.76423,0 1.17615,-2.97132 -2.66181,0.89759 -0.58807,-1.17615 -2.97132,0 4.73554,-0.30952 2.38325,-1.76422 -1.48566,-2.69276 -4.7665,0 -5.63313,2.38325 -8.01638,7.42831 3.24988,-3.86891 -0.58807,-1.76423 7.14974,-4.45698 1.48566,-2.38325 0.58808,-1.2071 18.41601,-1.17615 0.30951,0 1.76423,-3.86891 4.45698,-1.17615 2.38325,-2.692759 -2.07374,-1.176148 1.76423,0 -2.66181,-0.309513 2.07373,-0.278562 -1.48566,-0.619025 0.30951,-2.073736 -2.38324,-1.176149 -1.79518,1.485662 -0.27856,-2.073736 -2.97132,-0.619026 -3.86891,2.692762 3.28083,-2.692762 -2.69276,0.897587 4.7665,-2.383248 -2.38325,-0.278562 0.30951,-0.588074 -2.38325,0.588074 -0.58807,-1.2071 -0.61903,0.619026 0.30952,-0.897587 -1.17615,1.764223 0.58807,-1.485662 -1.2071,0.309513 0,-0.897587 -0.27856,0.309513 -1.48566,1.176148 0,-2.66181 -0.58807,0.897587 -0.30952,-1.2071 -2.97132,0 0.58807,-1.176148 -1.48566,0.278561 0.89759,-0.278561 -1.79518,-0.588075 1.2071,-0.309513 -2.38324,-0.588074 2.38324,0.278562 0,-1.454711 -3.28083,-1.2071 1.48566,-0.588074 -2.38325,-0.897587 0.30951,-0.897587 -1.79517,0.897587 1.2071,-1.764223 -2.07374,0.866636 1.17615,-1.485662 -1.17615,-1.176148 -2.10468,0.309512 1.48566,-0.619025 -3.83796,-2.352298 0.27856,-0.897587 -1.17615,-0.309513 -0.89758,2.073736 1.48566,1.2071 -1.48566,0.278562 1.17614,0.619025 -1.48566,0.866636 0.89759,1.795175 -1.48566,-1.795175 -2.38325,2.971323 -1.17615,-1.764223 -1.17615,1.764223 0,-2.352297 -2.69276,0 -1.76422,0 0.86663,-0.897587 0.89759,0.897587 0.30951,-1.795174 -1.2071,0 -0.58807,-2.073736 -2.66181,0 2.97132,-0.309513 -0.58807,-2.971323 -0.61903,0.897587 -4.14747,-1.176149 0,-1.485661 -1.79517,0.278561 -3.5594,-2.66181 -1.48566,1.176149 -6.53072,-1.176149 -1.48566,0.897587 1.79517,2.073736 -1.48566,2.383249 1.48566,0 0.86664,2.352297 -2.97133,4.456985 3.86891,2.104687 1.79518,5.633133 -2.69276,3.559397 -5.63314,2.383249 2.07374,1.485662 1.79517,7.11879 -1.79517,1.48567 0.58807,2.38324 -1.17615,-1.79517 -1.48566,1.79517 -0.58807,0 -1.79518,-0.58807 0,-1.48566 -4.73554,-4.456986 0.27856,-7.73782 -7.70687,-0.278562 -13.37095,-7.73782 -5.35457,1.176149 1.48566,-1.485662 -0.58808,-4.456984 -2.38325,-0.278562 -0.58807,1.176149 -1.2071,-2.073736 2.07374,-4.766497 4.45698,-3.559398 -0.58807,-0.588074 4.45698,-1.764223 -1.17615,-0.897587 2.07374,0.278561 2.07373,-1.176148 -2.07373,-1.485662 -1.48566,0.309513 0.58807,-0.619026 -3.24988,-0.588074 0.58807,-0.897587 5.63313,2.692761 1.79518,-2.073736 3.86891,0 2.97132,-2.692761 -7.14975,-2.383249 2.07374,-0.278561 4.17842,2.073736 3.24989,-2.383249 -1.48566,-0.897587 5.35457,1.2071 -2.38325,-2.383249 2.38325,0 0.89759,1.795174 4.14747,-2.971323 -2.3523,-2.692761 2.3523,-0.588074 -1.48566,-0.588075 1.2071,-0.897587 -2.97133,-0.897587 1.17615,-0.278562 -4.73554,-0.619025 0.86663,2.971323 -1.48566,0 -2.07374,3.590348 -2.07373,0.588075 0,-4.766498 -1.79518,-0.897587 -2.35229,2.692762 -0.89759,-3.280836 1.76422,0 -3.83796,-0.897587 0.86664,-0.588075 -0.86664,-0.278561 -4.76649,0 -0.30952,0.278561 4.17843,1.485662 -1.79518,0 -0.89759,1.485661 1.48567,-0.588074 0,1.176149 -3.83796,1.2071 -0.61903,2.383248 -1.76422,-0.897587 2.07373,-2.383248 -1.79517,0.897587 0.89759,-0.897587 -1.17615,-0.588075 -2.38325,0 0.30951,1.485662 1.48566,0 -0.61902,1.176148 -1.48566,-1.764223 -1.17615,1.176149 -1.79518,-0.309513 -3.83795,-0.278561 -0.89759,-1.485662 -2.69276,0 -0.27857,-2.383248 -5.35457,1.176148 1.79518,0.619026 3.55939,-0.897587 -5.04505,1.764223 0.27856,1.795174 -0.58808,0.897587 -0.89758,-0.588074 -0.27857,1.764223 -0.89758,-2.073736 1.48566,-0.588074 -1.79518,-2.073736 -3.55939,0.278561 -4.45699,-0.897587 0.58808,-0.866636 2.69276,-0.309512 -0.61903,-1.485662 -2.66181,-0.309513 -2.38325,-2.073736 -1.17614,-1.485661 -4.45699,0.588074 1.76422,-1.485661 0.61903,-0.588075 -0.89759,0.588075 -2.97132,1.2071 0.58807,-1.795175 0.58808,-1.795174 -0.58808,1.2071 -1.17614,0.278562 0.86663,0 0,0.03095 -0.89759,0 -5.32362,0.588074 3.24989,-1.2071 1.2071,-0.588074 -1.79518,0.309513 -4.76649,0.897587 -1.48567,-0.309513 1.48567,-0.897587 -3.24989,0.588074 -1.48566,1.485662 -0.89759,-3.559398 -0.27856,-1.795174 0,-0.278561 -4.17842,-2.971323 0.30951,-0.897588 1.17615,-0.588074 -0.89759,-0.309513 0.89759,-0.897587 -1.76422,0.309513 1.76422,-0.588074 0.58807,-0.588075 -2.66181,0.278562 -0.89758,-0.588075 z m 67.44284,17.827938 0.61902,-0.588074 1.17615,0 -2.66181,-4.456984 -4.45698,2.66181 1.17615,0.309513 -1.48566,1.764223 4.76649,0 0.86664,0.309512 z m 40.73189,467.673856 -0.34047,0.0929 0,0.0928 0.34047,-0.18571 z m -0.34047,0.18571 -1.45471,0.71188 1.17615,0.30951 0.27856,-1.02139 z m -0.27856,1.02139 1.2071,0.58808 -0.30951,-0.58808 3.28083,-0.89758 -3.28083,0 -0.89759,0.89758 z m 0.27856,-1.11424 0.031,-0.0929 0.89759,-1.17614 -0.89759,0.89758 0,-0.58807 -0.30951,0 -0.58807,0 -1.17615,0 0,1.48566 2.04278,-0.52617 z m -2.63086,-8.10924 -0.61902,-1.17615 -1.17615,1.17615 0.89758,0 0.89759,0 z m -0.89759,0 -0.58807,1.79518 -1.79517,-0.30952 0.89758,1.48567 1.76423,-1.48567 -1.17615,1.48567 1.48566,-0.27857 -0.58808,-2.69276 z m 0.27857,-5.04506 -2.3523,0.89759 0.86663,0.27856 -0.58807,-0.27856 2.07374,-0.89759 z m 6.56167,-3.86891 0.27856,-1.17615 -1.48566,0.58808 1.2071,0.58807 z m -1.2071,-8.01638 -1.17615,0 -0.58807,1.48566 -1.2071,2.66181 1.48566,0 1.79517,-0.58807 0.27856,-3.5594 -0.58807,0 z M 152.75817,80.906539 l -0.031,0 0,0.09285 0.031,-0.09285 z m -0.031,0 0,-1.392807 -0.86664,0.866636 0.86664,0.526171 z m -2.66181,-27.856153 -0.30951,-1.485661 -2.07374,0.309513 -3.86891,2.383248 0.61903,0.278562 -2.97133,1.2071 3.5594,0 0.64998,-0.495221 1.42376,-0.711879 0,0.897587 2.38324,-0.897587 0.58808,-1.485662 z m -31.78697,8.016382 0.89759,-0.866636 -2.38325,0.588075 0.58808,0.278561 0.58807,0.309513 0.30951,-0.309513 z m 137.26893,-33.551189 2.66181,0.588075 -0.27856,-0.588075 -2.38325,0 z m -19.31359,0.278562 -1.79518,0.309513 0.89759,0.588074 -2.66181,0 2.07373,0.309513 -3.28083,0.278561 2.38325,0 -3.5594,0.588075 1.17615,0.897587 2.69276,-0.897587 -0.89759,0.897587 3.5594,0 -5.04506,0.588074 1.48566,0.897587 5.35457,-0.588074 2.97133,0.309513 2.07373,-1.795175 -0.58807,-0.309512 -1.2071,0.619025 -0.86664,-0.309513 1.17615,-2.073735 -2.38325,0.588074 -0.27856,2.073736 -2.38325,-0.588075 -0.89758,-2.383248 z m 24.35865,0 0.58808,0.897587 0.61902,-0.588074 -1.2071,-0.309513 z m -27.91805,0.309513 -2.97133,0.897587 1.48567,0 1.48566,-0.897587 z m 21.69685,0.588074 0.58807,1.795174 2.66181,-0.309513 -0.27856,2.971323 2.3523,1.176149 1.79517,-0.866636 0.89759,1.176149 5.04506,0 0.30951,-0.897587 2.07374,0.897587 2.07373,-0.588074 0.89759,-0.309513 -0.89759,0 -0.30951,-0.278562 0.30951,-0.309513 0.58808,-0.588074 -0.58808,-0.309513 -1.79517,-0.588074 -5.94265,0.897587 -2.3523,-0.588074 -0.30951,0.588074 -0.89759,-1.485661 -1.48566,-0.588075 2.69276,0.278562 -2.38325,-0.588075 0.58808,-0.309512 -2.97132,0.309512 0.58807,-1.176148 -3.24988,-0.309513 z m -2.10469,0.588074 -0.86664,0.588075 -0.89758,-0.278562 -0.89759,0 0,1.176149 -1.17615,-1.176149 0,1.176149 -2.38325,0.309513 3.24989,0 0.30951,0.278561 -0.58808,0 -1.2071,0.619026 0.30952,0.588074 2.38325,0.278562 1.48566,-0.866636 0.27856,-2.692762 z m 82.33041,0.309513 0,0.588074 2.35229,-0.309512 -2.35229,-0.278562 z m 2.97132,0.278562 -0.52617,0.526171 -0.37142,0.09285 1.76423,0.588075 2.69276,0.278561 -2.94037,-1.052343 0.86663,-0.123806 -1.48566,-0.309512 z m -116.50062,0.619025 -0.86664,1.176149 -8.04733,3.280836 1.2071,0.278561 -0.58808,2.383249 3.83796,-0.309513 1.79518,-1.176149 0.64997,-0.309512 8.85207,-2.073736 -0.27856,-1.764223 -2.38325,0.278561 -0.30951,-0.588074 -0.27856,-1.176149 -3.59035,0 z m 34.17021,1.176149 -3.24988,1.176149 3.55939,0.897587 -0.30951,-2.073736 z m -26.74191,2.66181 -6.80928,1.2071 -2.69276,1.485662 1.48566,0.278561 -1.48566,0.619026 4.17842,0.278561 -5.07601,0.588075 -0.27856,0.897587 5.04506,0.588074 2.07374,1.485662 -8.3259,-0.588075 -0.58807,1.795175 2.97132,1.485661 -0.58807,1.485662 6.53072,0 5.04506,-1.485662 1.2071,1.764223 5.35457,0.309513 0,-1.485662 -2.10469,0.897588 0.61903,-1.485662 1.17615,0.588074 2.38324,-0.897587 0.27857,0.897587 0.30951,-0.897587 0.30951,-0.588074 -3.59035,-2.383249 2.38325,-4.456984 -0.89759,-1.176149 -2.07373,0 -2.66181,3.86891 0.27856,-3.590348 -1.17615,0 0,1.2071 -0.58807,-0.309513 -1.2071,0.588074 -1.17615,-0.278561 2.07373,-0.897588 -1.48566,-0.897587 -2.97132,0.897587 2.07373,-1.795174 z m 113.5293,0 0.27857,1.795174 1.79517,-0.897587 -2.07374,-0.897587 z m -175.92708,0.0619 0,0.557123 -0.27856,-0.309513 0.27856,-0.24761 z m 72.20934,0.24761 -0.89759,0.588074 1.48567,1.2071 1.79517,-1.2071 -2.38325,-0.588074 z m 7.14975,0.588074 -0.30952,0.897587 -1.17614,-0.309512 1.48566,0.619025 0.27856,0.278562 -0.58808,0.309513 -0.58807,0.588074 -2.07374,-0.897587 -1.2071,0.897587 2.07374,2.66181 0.61903,0.619026 1.48566,0 0.30951,-0.619026 1.76422,0 1.76423,-2.352297 -2.07374,-0.619026 2.97132,-1.764223 -3.86891,-0.309513 -0.86663,0 z m 7.11879,0 -2.07373,4.766498 2.66181,-1.2071 -0.58808,-0.588075 2.66181,0 3.59035,-2.383248 -6.25216,-0.588075 z m 10.98771,0.897587 -3.86891,1.176149 -2.3523,4.178423 4.14747,0.897587 2.97132,-0.309513 -1.17614,-1.795174 0,-1.485661 2.35229,-2.352298 -2.07373,-0.309513 z m -0.27856,4.147472 2.07373,0.897587 -0.58807,1.795175 -0.30952,-0.588075 -2.97132,0 -3.86891,0 0.89759,1.485662 1.17615,0.866636 2.38325,-0.866636 0.89758,1.485661 0.30952,0 5.94264,0.278562 -0.61902,-0.278562 -1.17615,-0.897587 1.48566,0.897587 1.79517,0.866636 -0.89758,-0.866636 -0.30952,-0.309513 2.38325,0.309513 0.30951,0 1.76423,0.278562 -0.27856,-0.278562 -0.89759,-0.897587 0.89759,-0.897587 1.76422,1.795174 0.58807,0.588075 0.89759,-0.588075 -0.27856,0.866636 1.76422,0 0.89759,0.897587 -1.48566,1.485662 1.79517,-0.897587 2.3523,1.485661 0.89759,-0.588074 3.55939,3.86891 -1.48566,1.176149 1.79518,0.309512 -1.79518,0 -2.3523,1.485662 2.3523,2.073736 -4.45698,0.588074 -3.24989,-0.588074 -0.89758,2.971323 7.11879,0 -0.58807,-1.485662 2.38324,1.795175 0.30952,-1.2071 1.76422,2.383248 3.28084,0.588075 -1.79518,0.619025 1.2071,0.866636 12.75193,2.971323 -7.70687,-5.045059 2.97132,1.2071 -0.89758,-1.2071 7.11879,2.971323 -2.07373,-3.559397 2.38324,1.795174 -1.17614,-2.383248 -2.38325,-0.588075 1.17615,-0.619025 -1.76423,-1.176149 -0.89758,0.897587 -1.2071,-1.2071 0.30951,0.897587 -2.07374,-2.66181 -1.48566,0.897587 -0.89759,-1.795174 2.38325,0 -2.07373,-1.795174 2.07373,0 1.76423,1.485661 0.89758,-0.866636 -0.27856,1.176149 2.07374,-1.176149 -1.2071,1.764223 4.76649,2.073736 -1.48566,-2.971323 2.07374,0.897587 -1.17615,-1.485661 2.07374,0.309513 -2.38325,-0.897588 2.69276,0 -1.79518,-0.897587 1.48567,-0.278561 -1.79518,-0.897587 -0.58807,1.176148 -0.58808,-0.897587 -1.48566,0.619026 0.58808,-1.485662 -0.89759,1.176149 0.30951,-0.897587 -1.79517,0.897587 0.89758,-0.897587 -1.48566,0 1.48566,-0.278562 -1.48566,-1.2071 -0.95949,0.495221 -0.21666,0.402366 -1.2071,-1.176148 0,1.176148 -0.27856,-1.176148 -0.58807,0.588074 -0.30951,-0.897587 -0.58808,0.588074 -0.58807,-0.897587 -1.48566,0 1.76422,-0.278561 -4.73555,-0.897588 2.66181,0 -1.17615,-0.897587 -1.2071,0.588075 1.48567,-0.866636 -1.76423,-0.309513 3.83796,0.309513 -0.86663,-0.619026 -4.7665,0 4.45698,-0.588074 -0.30951,-0.588075 -0.27856,-0.309512 -1.48566,-0.588075 -1.2071,0.897587 0.61902,-0.588074 -2.38325,0.588074 2.66181,-1.485661 -2.07373,-0.588074 -1.48566,0.897587 0.58807,-0.897587 -1.76422,2.073735 0.27856,-1.176148 -1.17615,0.278561 1.48566,-1.764223 -2.69276,1.176149 1.79517,-1.485662 -2.38324,-0.897587 -1.48567,1.485662 0,-1.764223 -1.76422,1.485661 0.27856,-1.2071 -1.17615,0 1.48567,-0.897587 -2.97133,0.309513 1.48566,-1.485662 -3.28083,-0.588074 -1.48566,0.897587 2.38325,0.588075 -2.50706,0 -1.64042,-0.897588 -0.30951,0.309513 -1.17615,1.176149 0.86664,-1.795174 -1.76422,-2.352298 -4.45699,0.866636 1.48566,0.619026 -2.38325,0 2.07374,0.588074 -2.38325,-0.309513 1.79518,2.073736 -1.48567,-0.588074 -1.17614,0.588074 z m 34.97494,10.306777 0.37142,-0.773782 -0.58808,0.866636 0.21666,-0.09285 z m -27.54664,-4.364131 1.48566,0.309513 0.86664,-0.588074 -0.86664,0 -1.48566,0.278561 z m 0.27856,-9.780605 0.89759,1.764223 0.89759,0.588075 4.73554,-0.588075 -2.07373,-1.485661 -3.5594,-0.278562 -0.89759,0 z m -85.58029,2.971323 -1.76422,0.897587 0,-0.03095 1.76422,-0.866636 z m 7.45926,0.588075 -3.5594,2.66181 3.24989,1.485661 -1.17615,2.971323 -0.27856,0.185708 -0.0309,0.123805 -1.73328,1.238051 2.3523,3.218934 -0.89759,1.485661 0.58808,-1.485661 -2.38325,-2.971323 0.34046,-0.247611 -0.0309,-0.0619 1.79518,-1.299954 0.86663,-3.157031 -2.66181,-0.278561 0,-1.2071 0,-0.588075 3.5594,-2.073735 z m -9.53299,0.588074 -2.38325,1.2071 0,-0.03095 2.38325,-1.176149 z m -33.86071,0.309513 -2.35229,1.764223 0,1.2071 -0.031,0 -1.45471,0.866636 3.18798,-0.588075 -0.0309,0.03095 -1.11425,0.557123 -2.04278,0 -0.031,0 -0.27856,0 1.45471,-1.176149 0.30952,-0.897587 0,0.09285 0.031,-0.09285 0,-0.278562 2.35229,-1.485661 z m 163.11326,1.764223 -2.07374,0.309513 0.30951,0.278561 0.86664,1.2071 2.10469,-0.309513 0,0.897587 2.07373,-1.176148 -2.07373,-0.897587 -1.2071,-0.309513 z m -161.07047,0.03095 -0.86664,0.557123 -1.67137,0.835685 1.67137,-1.114246 0.86664,-0.278562 z m 27.94901,0.278562 -0.58808,0.309512 0,-0.03095 0.58808,-0.278561 z m 31.19889,0 -0.27856,0.309512 -0.89759,0.588075 0.27856,-0.309513 0.89759,-0.588074 z m -34.17022,1.764223 0,0.03095 -0.58807,0.278561 0.58807,-0.309512 z m 67.16428,0 -2.97132,2.383248 3.5594,1.485662 2.69276,-0.897587 -3.28084,-2.971323 z M 138.76814,45.034 l -1.76422,1.795175 1.17615,-0.309513 1.48566,-1.176149 -0.89759,-0.309513 z m 68.03092,0.897588 0.0309,0 -0.30951,0.588074 0.27856,-0.588074 z m -32.37504,0.278561 0,0.03095 -1.76423,0.866636 1.76423,-0.897587 z m 30.61081,1.795174 0.30952,0 0.58807,0.588075 -2.38325,0.619025 -0.27856,0.278562 1.79518,0.588074 2.35229,-0.588074 -2.66181,2.383249 -2.66181,-0.897588 -0.89759,1.485662 -0.031,0 -1.17615,0.309513 -2.97132,0.588074 3.21894,-1.764223 -4.08557,1.176149 -1.48567,-1.2071 3.83796,-1.176149 -0.58807,-0.588074 2.66181,0.278561 -2.07374,-1.176148 -3.24988,0.588074 -0.0309,0 0.89758,-1.176149 0.031,0 8.88301,-0.309513 z m -34.75829,0.897588 -0.58807,0.309512 0,-0.03095 0.58807,-0.278561 z m 107.55571,0.897587 -0.30952,2.66181 2.97133,-0.309513 0.30951,-1.485661 0,-0.278562 -2.97132,-0.588074 z m 3.55939,0.588074 2.38325,0.588074 -0.89758,-0.588074 -1.48567,0 z m -68.03091,0.588074 0.89759,0 -1.17615,1.176149 0.27856,-1.176149 z m -3.5594,1.795175 2.69276,1.764223 -0.89758,0.588074 -1.79518,-2.352297 z m 5.66409,0 1.48566,2.66181 -1.2071,0.897587 -0.27856,-3.559397 z m -51.44103,0.588074 -0.58808,0.309513 0,-0.03095 0.58808,-0.278562 z m 76.69727,0 0.27856,0.897587 -1.48566,0.278562 1.2071,-1.176149 z m -42.83657,1.176149 0.0309,0 -0.30951,0.619025 0.27856,-0.619025 z m 33.9226,0 3.24989,0 2.66181,0.309513 -2.94037,0.588074 -2.97133,-0.897587 z m -70.16655,0.588074 0,0.03095 -1.17615,0.588075 1.17615,-0.619026 z m 1.82612,0.309513 -2.10468,1.795174 0.89758,-1.2071 1.2071,-0.588074 z m 33.24168,0.309513 -0.27856,0.588074 -0.0309,0 0.30951,-0.588074 z m 67.16428,0 0.58807,0.866636 0.30952,0 1.48566,0.309512 -2.38325,-1.176148 z m -2.38325,0.588074 -1.79517,5.045059 -2.07374,1.485661 2.97132,-0.309512 0.89759,1.795174 4.7665,-2.971323 0.86663,1.485661 3.28084,0.588075 1.79517,-0.897587 -1.79517,-1.176149 -2.07374,0.588074 0.27857,-1.764223 -5.04506,-2.692761 -0.89759,0.588074 -1.17615,-1.764223 z m -101.92257,0.278562 0,0.03095 -0.58807,0.278561 0.58807,-0.309512 z m 53.20525,0 2.69277,0 -2.38325,0.619025 -0.30952,-0.619025 z m -1.17614,0.309512 0.89758,0.897588 -2.38325,-0.309513 1.48567,-0.588075 z m -73.72596,0.309513 -1.3309,1.052344 1.64042,-0.464269 -0.30952,-0.588075 z m -1.3309,1.052344 -0.43332,0.123805 0.27856,0 0.15476,-0.123805 z m 62.27398,-0.773782 0.30951,1.485661 -0.30951,0 -1.17615,-1.176148 1.17615,-0.309513 z m 18.41601,0 1.48566,1.795174 -4.45698,-0.897587 2.97132,-0.897587 z m 71.03319,0 3.24988,2.383248 -2.97132,-0.309512 -0.27856,-2.073736 z m -130.18109,0.309513 -0.58807,0.309512 0,-0.03095 0.58807,-0.278561 z m -23.18251,0.278561 -2.07374,1.795174 0.58808,-1.176148 -1.17615,0.588074 -0.58807,1.176149 0.58807,-0.278562 -1.48566,0.866636 2.97132,-0.588074 0.58808,-0.897587 0.30951,0.619025 1.48566,-1.2071 -0.30951,-0.897587 -1.48566,0.897587 0.58807,-0.897587 z m 96.59895,0.309513 1.45471,0 0.0309,0 5.63313,0.309513 -2.97132,0.897587 -2.66181,-0.897587 -0.0309,0 -1.45471,-0.309513 z m -66.26669,1.795174 -2.38325,2.66181 -1.48566,0.588075 2.69276,-2.073736 1.17615,-1.176149 z m 35.0678,0.278562 2.97132,2.971323 6.84023,-2.073736 2.97133,0.588074 -2.97133,0 1.48567,0.309513 -2.38325,0 1.79517,0.278562 -2.69276,0.309512 -8.01638,3.280836 -2.66181,0 -3.86891,-2.104687 -3.86891,-0.866636 3.55939,0 0.30952,0.866636 2.66181,0.897587 2.07373,-1.485661 2.10469,0 -0.30951,-2.971323 z m 9.81155,1.485661 -1.79517,0 -1.17615,0.588075 2.97132,-0.588075 z m 25.84432,-1.485661 1.79518,0.309513 -0.89759,0.588074 -0.89759,-0.897587 z m -121.54568,0.588074 -1.269,1.021392 1.269,-0.711879 0,-0.309513 z m -1.269,1.021392 -0.30951,0.185708 0.0928,0 0.21666,-0.185708 z m -0.30951,0.185708 -1.0833,0 0.58808,0.278562 0.49522,-0.278562 z m 117.49106,-0.897587 -2.10469,2.66181 -1.48566,-1.176149 3.59035,-1.485661 z m -39.86525,0.897587 0.0309,0 -0.30951,0.588074 0.27856,-0.588074 z m 54.72187,1.176149 1.76422,0.588074 -1.48566,0.309513 -0.27856,-0.897587 z m 30.27035,0 1.2071,0.897587 0.58807,-0.897587 -1.79517,0 z m -62.95491,0.309513 -3.28083,2.383248 0,-0.897587 3.28083,-1.485661 z m 23.15156,0 0,1.485661 -1.76422,-0.588074 1.76422,-0.897587 z m -5.63313,0.278561 0,1.2071 0,0.588074 -0.031,0 -0.27857,0 -0.89758,-0.278561 0.0309,-0.03095 1.1452,-1.454711 0.031,-0.03095 z m -3.86891,0.309513 1.2071,0.309513 -2.10469,0.866636 0.89759,-1.176149 z m 42.18659,0.588074 -2.38324,0.309513 -2.07374,1.176149 0.27856,0.897587 4.17842,-2.383249 z m -80.53523,0.309513 -0.27856,0.588074 -0.0309,0 0.30951,-0.588074 z m 31.22984,0.278562 0.27856,0.897587 -2.66181,0.897587 2.38325,-1.795174 z m -64.19295,0.309512 -2.10469,2.661811 1.2071,-0.866636 0.58807,0.866636 0,-1.764223 0.58808,1.176148 0.89758,-0.897587 -1.17614,-1.176149 z m 2.35229,0.309513 -3.83796,4.147472 2.07374,-0.897587 2.07374,-2.383249 -0.30952,-0.866636 z m 116.19111,0.278562 -0.89758,2.073736 0,0.309512 1.48566,-1.176148 -0.58808,-1.2071 z m -87.37546,0.897587 0.0309,0 -0.30952,0.588074 0.27857,-0.588074 z m 118.26484,0.588074 1.2071,0.588075 0.27856,-0.588075 -1.48566,0 z m -85.23983,0.309513 -0.30951,1.176149 1.48566,-0.278562 -2.07373,1.485662 0.89758,-2.383249 z m -34.51068,0.897587 0.031,0 -0.30952,0.588075 0.27856,-0.588075 z m 38.07008,0.866636 -0.58807,2.104687 -0.89759,-0.897587 1.48566,-1.2071 z m 8.01638,0 -2.38325,1.485662 0.58808,0.619025 -1.17615,-0.309513 -0.27856,1.795175 -0.031,0 -0.86664,-0.619026 -0.0309,0 -0.27856,-0.278561 0.58807,-0.588075 1.17615,-1.485661 0.0309,0 2.66181,-0.619026 z m -76.97583,0.619026 -2.66181,2.971323 2.07373,-1.795175 0.58808,-1.176148 z m 0.58807,0 -1.17615,1.764223 0.89759,0.309513 1.48566,-1.485662 -1.2071,-0.588074 z m 63.32632,0 0,1.176148 -1.48566,0 1.48566,-1.176148 z m -11.88529,0.866636 6.84023,1.795174 -7.14974,-0.309513 -4.73555,1.795174 -0.30951,-0.897587 5.35457,-2.383248 z m 81.40187,0 0.58807,1.2071 -3.83796,-0.588075 3.24989,-0.619025 z m -134.32856,1.2071 -1.76422,2.383248 0.58807,0.278562 -1.48566,0.897587 0.58807,1.176149 -0.27856,1.2071 1.76422,-1.795175 -0.89758,-0.588074 1.2071,0 0.27856,-3.559397 z m 133.15241,2.383248 0,0.278562 2.38325,0.897587 -3.28084,-0.588074 0.89759,-0.588075 z m -131.35724,0.278562 -1.48566,0.897587 0.30951,0.588074 -0.30951,0.309513 1.17615,-0.309513 0.30951,-1.485661 z m 14.26854,0.309513 -0.27856,2.383248 0.27856,0.03095 0,-0.03095 3.28084,0.588075 -3.28084,-0.557123 -0.86663,2.940371 0.86663,-5.354571 z m 49.33635,0.897587 -1.79518,2.352297 -1.48566,-0.278561 1.48566,-1.795175 1.79518,-0.278561 z m 2.07373,1.485661 -2.07373,3.559398 -4.14748,2.073735 1.17615,-1.795174 -0.58807,1.2071 1.76422,-0.897587 0,-2.383249 3.86891,-1.764223 z m -10.9877,0.278562 0,1.2071 -2.66181,0.278561 2.66181,-1.485661 z m -62.11922,1.485661 -2.38325,3.86891 0,3.559398 0.30951,-2.66181 1.17615,-0.588075 -0.58808,-0.897587 3.86891,-2.692761 -3.28083,1.795174 1.79517,-1.485662 -0.89758,-0.897587 z m 80.84474,0.309513 -0.89759,1.764223 -3.86891,0.897587 2.38325,-0.588074 2.38325,-2.073736 z m -25.84432,0.588074 0.86664,1.485662 -2.97133,2.66181 -0.27856,-2.073736 0.89759,1.2071 1.48566,-1.2071 0,-2.073736 z m 84.96127,1.176149 -1.48566,0.897587 1.2071,0.588075 -2.97133,0 3.24989,-1.485662 z m -135.50471,2.692762 -1.48566,2.073735 0.58807,-0.588074 -0.58807,1.764223 1.48566,-3.249884 z m 123.00039,0.588074 -1.76422,2.383249 1.76422,-0.588075 0,0.866636 0.30951,-0.588074 0,-0.03095 -0.30951,-2.042784 z m 33.30358,4.456984 3.83796,3.064177 0.80473,0.433318 1.29996,-0.526172 -0.27857,-0.309512 1.76423,0 -1.17615,-2.073736 2.38325,2.383248 2.07373,0 -2.69276,0.897588 -1.76422,-0.897588 -1.39281,1.114247 0,0.154756 1.39281,1.114246 -1.2071,0 -0.18571,-1.114246 -0.0928,-0.09285 0.0928,-0.0619 -0.0928,-0.526172 -0.12381,-0.0619 -0.18571,0.0619 -0.61902,-0.495221 -2.94037,-1.578515 0.58807,1.176149 -1.48566,-2.661811 z m -73.695,0.588075 2.10469,0.309513 -3.28084,1.176148 1.17615,-1.485661 z m -9.50204,0.897587 0.30951,1.176149 0.89759,10.399634 -2.10469,2.97132 1.2071,-4.45698 -1.79518,0.61902 0.30952,-2.383248 -1.79518,0.278561 -1.17615,-3.249884 1.17615,-0.588075 0.30952,0 -1.79518,-1.2071 1.48566,-1.764223 2.38325,0.866636 0.58808,-2.66181 z m 75.18066,0 0.58807,0.897587 -1.76422,0.278562 -0.30951,0 1.48566,-1.176149 z m -80.84475,0.309513 -0.0309,0.09285 0.0619,-0.09285 -0.58807,1.485661 0.27856,0 -0.89759,0.588075 0.30952,0.588074 1.17614,1.485661 -1.48566,-0.588074 -2.07373,-0.897587 1.76422,-0.588074 1.48566,-2.073736 z m -73.07597,1.764223 -0.30952,1.485661 1.79518,-0.278561 -2.38325,1.485661 1.76422,0.278562 0,0.588074 0,4.17843 2.69276,-0.58808 -2.07373,1.76423 3.5594,1.79517 -0.30952,-6.252163 0,-1.485661 -4.73554,-2.971323 z m 87.06595,0 1.48566,0.897587 -2.38325,0 0.89759,-0.897587 z m 72.20934,1.2071 -0.30951,1.764223 -1.48566,0 1.79517,-1.764223 z m -90.06823,0.588074 0.0309,0 1.45471,0 0.0309,0 0.86664,0.588074 0.0309,0 0.86664,0.588075 0.0309,0 -1.76422,4.642694 -0.0619,0.12381 0.61903,-3.868917 0,-0.309513 0,-0.278561 -2.38325,-0.588075 0.27856,-0.897587 z m 100.15835,1.764223 1.79517,1.485662 -1.2071,-0.278562 -0.58807,-1.2071 z m -45.77695,0.309513 -2.38325,0.588074 3.59035,1.2071 -1.2071,-1.795174 z m 71.03319,2.383249 -2.69276,3.559398 0.30951,2.66181 0.58808,2.10469 -1.48566,0.27856 1.48566,1.48566 -1.48566,-0.27856 -1.79518,2.66181 2.97133,-0.58807 -2.66181,2.66181 1.17614,1.2071 2.10469,-1.2071 4.73555,0.58807 2.38325,-1.76422 -0.30952,1.76422 3.86891,-1.17615 -2.66181,3.28084 2.07374,-0.61903 2.07374,-3.55939 1.48566,1.48566 -0.27856,2.69276 1.17614,-1.79518 0.58808,2.07374 1.48566,0 0,-3.5594 -0.89759,-0.89758 -0.86663,0.89758 0,-2.38325 -0.61903,2.69277 -1.76422,-1.2071 0.58807,-0.89759 -1.17615,-0.27856 2.07374,-1.48566 -2.97132,0.89758 0.58807,-3.59035 -2.66181,0.30952 -0.61903,-1.17615 -1.76422,2.3523 0,-2.07374 -2.38325,0.89759 0.89759,-2.38325 -2.07374,0.58807 0,-0.27856 0,-0.58807 -0.30951,0.58807 -0.89759,1.76422 0.30952,-1.76422 0.58807,-4.17842 -1.48566,-0.86664 1.79517,-0.30951 -1.48566,-0.588078 z m -143.21158,0.897588 0.30952,0.86664 -1.48566,0.30951 1.17614,-1.17615 z m 21.10878,0 0.24761,1.76423 0.0309,0 0.58807,4.17842 -0.61902,-4.17842 -1.73327,-0.89759 1.48566,-0.86664 z m -50.23393,0.58808 0.58807,0.27856 1.17615,0 0.89759,0.30951 -0.89759,-0.27856 -1.17615,0 -0.58807,-0.30951 z m 131.94531,0.27856 1.17615,0 0,0.30951 0,0.89759 -1.17615,-1.2071 z m 6.53072,0 -0.89759,4.17842 -2.38324,-3.86891 3.28083,-0.30951 z m -128.69543,1.2071 0.61903,0.27856 1.48566,0 0.58808,0.30951 -0.61903,-0.27856 -1.48566,0 -0.58808,-0.30951 z m 115.91255,0.89759 -3.86891,5.04505 0.58808,-3.55939 3.28083,-1.48566 z m -104.89389,0.58807 0.58807,0.27856 1.48567,0 0.86663,0.30951 -0.86663,-0.27856 -1.48567,0 -0.58807,-0.30951 z m 91.83245,0.89759 2.07374,0.27856 -1.79518,0.89759 -0.27856,-1.17615 z m -78.77101,0.58807 0.58808,0.27856 2.38324,0 0.89759,0.30952 -0.89759,-0.27857 -2.38324,0 -0.58808,-0.30951 z m 36.86298,0 -0.89759,1.76422 -2.07374,0 -1.79517,-1.48566 2.38325,1.2071 2.38325,-1.48566 z m 65.64766,0 0.031,0.0309 1.17614,2.63086 0.27857,0.86664 0,0.031 -1.17615,-0.89759 -0.89759,-0.89759 0.58807,-1.76422 z m -17.79698,1.17615 0.27856,0 1.2071,0.30951 -0.89759,1.17615 -0.58807,-1.48566 z m -66.29765,0.30951 0.58808,0.27856 3.28083,0 0.89759,0.30952 -0.89759,-0.27856 -3.28083,0 -0.58808,-0.30952 z m 27.36094,0.27856 0.89758,1.2071 0.27856,0.27857 0,0.031 -0.80473,0.95949 -0.95949,1.11424 -0.0309,0 -1.76422,-1.48566 1.17615,-0.89759 1.17614,-1.17614 0.031,-0.031 z m 32.6536,0.30952 0.031,0.0309 0.58807,1.1452 0,0.30951 -1.76422,0.89759 0,-0.031 0.55712,-1.17614 0.58808,-1.17615 z m -50.79106,0.30951 0.89759,2.66181 -2.38325,-0.30951 2.38325,0.61902 -4.14747,0.86664 2.66181,-2.66181 -1.76422,0 2.35229,-1.17615 z m 89.13969,0 8.01639,2.3523 0.30951,-0.86664 -2.97132,-1.2071 -5.35458,-0.27856 z m -66.85476,0.58807 0.89758,0.27857 19.90168,0 0,0.031 -19.90168,0 -0.89758,-0.30952 z m 49.92441,0.27857 2.07374,1.79517 -1.76422,-0.89759 -2.07374,1.2071 1.76422,-2.10468 z m -69.51657,2.97132 2.07373,2.69276 -2.38325,-1.2071 0.30952,-1.48566 z m 15.13517,0.61902 5.66409,0.86664 1.48566,2.97132 2.94037,0.30952 0.031,0 0.89759,5.63313 11.85434,2.10469 0.0309,0 2.66181,3.24988 0.89759,1.2071 -0.89759,1.17615 -0.0309,0 -0.27856,0.30951 -2.97132,-0.61902 -2.2904,-2.56896 1.42376,2.56896 -1.79517,5.07601 -0.031,0 -2.35229,1.48566 -1.2071,-4.17842 -3.83796,1.2071 -0.031,0 2.10468,-2.38325 0,-3.86891 -5.04506,-2.07374 -2.07373,3.86891 0,-0.0619 -0.0309,0.0619 0,-1.45471 -2.3523,1.73327 -0.58807,6.84024 -1.48567,4.45698 -0.0309,0 -2.94037,1.17615 -0.0309,0 -0.89759,-6.53072 2.38325,-6.22121 -2.04278,0.27856 -0.0309,0 3.86891,-4.73554 0.89758,1.17615 3.5594,-1.79518 5.35457,0.61903 -1.2071,-1.79518 -2.38325,-0.27856 0.30952,-1.2071 -7.70687,0.89759 -0.0309,0 -1.17615,-1.48566 -0.24761,0.031 -1.82613,0.27856 0,-0.031 -0.30951,-1.76422 -6.22121,2.38324 -1.48566,0 0.58807,-1.48566 -4.14747,0.58808 10.36868,-6.25216 0.0309,0 0.89759,0.58807 1.17615,-2.07373 -0.58808,1.76422 1.17615,-0.55712 0,-1.48567 z m -44.26033,0.27857 0.58808,1.48566 1.2071,-0.58808 -0.30952,1.48566 2.97133,0.58808 -3.86891,-0.27856 -0.58808,-2.10469 -2.66181,-0.27856 2.66181,-0.30951 z m -9.81156,0.30951 -0.89758,1.48566 0,-1.2071 -4.73555,1.2071 -0.30951,-1.2071 0.30951,0 5.63313,-0.27856 z m 95.97993,0.27856 1.79517,1.79517 -2.69276,-0.89758 -1.17615,0.58807 2.07374,-1.48566 z m -77.87343,1.2071 -0.27856,0.58807 0,0.30952 -0.30951,0.58807 0.27856,-0.58807 0,-0.30952 0.30951,-0.58807 z m 72.24029,2.97132 0.58808,2.66181 -1.48566,-1.17614 0.89758,-1.48567 z m 50.17203,0.27857 -2.3523,4.17842 1.48567,1.76422 3.24988,-1.76422 0.58807,-0.30951 -0.58807,-0.58808 -1.17615,-0.58807 -0.89759,2.38325 -1.17614,0.27856 1.76422,-2.66181 -0.89759,-2.69276 z m -10.9877,0.61902 -0.58808,1.76422 5.04506,2.07374 2.38325,-1.76422 -5.94265,0.27856 -0.89758,-2.3523 z m -114.95306,0.58808 -1.79518,8.91396 -2.07373,-1.2071 2.07373,-1.17614 1.79518,-6.53072 z m 2.04278,0.58807 -0.27856,0.58807 0,0.30952 -0.30951,0.58807 0.27856,-0.58807 0,-0.30952 0.30951,-0.58807 z m 90.65631,1.17615 -13.68047,9.22348 -1.76422,1.48566 0.58807,2.38325 -2.38325,1.17615 -9.50204,0 2.07373,-2.07374 6.53072,-0.30951 0.89759,-0.86664 -2.38325,0 5.94265,-1.79517 5.35457,-3.86891 -7.42831,0.30951 -4.45698,-2.97132 4.45698,2.66181 7.42831,0 8.3259,-5.35457 z m -27.67045,2.10469 0.89759,0 0.031,0 1.17615,0.58807 -2.07374,-0.30951 -1.79517,0 1.76422,-0.27856 z m -64.75008,2.35229 0,0.61903 -0.30951,0.58807 0.27856,-0.58807 0,-0.58808 0.0309,-0.031 z m -1.29995,4.67365 -0.18571,0.40236 0,0.58808 -0.30951,0.58807 0.27856,-0.58807 0,-0.58808 0.21666,-0.40236 z m 2.19754,0.0928 1.48566,3.86891 -2.07374,-1.79517 0.58808,-2.07374 z m -44.56985,4.7665 1.17615,3.24988 -0.58807,-0.58807 -0.89759,1.48566 0.30951,-4.14747 z m 40.88664,1.08329 -0.1857,0.40237 0,0.58807 -0.30952,0.58808 0.27857,-0.58808 0,-0.58807 0.21665,-0.40237 z m 71.40461,0.0929 0.031,0 -0.89759,2.07373 -0.0309,0 -2.97132,1.48566 -5.91169,2.69276 -6.25216,-0.89758 2.97132,-3.86891 0.89759,1.17615 -2.07374,0.61902 0.30951,1.17615 4.42604,-2.07374 5.35457,-0.30951 -1.17615,-0.27856 1.45471,-0.61903 3.86891,-1.17614 z m -72.89027,5.84979 -0.1857,0.40236 0,0.58808 -0.30952,0.58807 0.27856,-0.58807 0,-0.58808 0.21666,-0.40236 z m 96.38229,1.57851 -6.25216,2.07374 4.7665,-0.58808 1.48566,-1.48566 z m -97.77509,4.45699 -0.27857,0.58807 0,0.58808 -0.031,0.0309 0,-0.61903 0.30952,-0.58807 z m -36.52252,3.28083 -1.79517,2.66181 -2.97132,0.89759 4.76649,-3.5594 z m 35.03685,2.66181 -0.27856,0.58808 0,0.58807 -0.30951,0.61903 0.27856,-0.61903 0,-0.58807 0.30951,-0.58808 z m -49.30539,1.17615 -0.27856,1.48566 0.86664,-0.27856 0.30951,2.07374 -0.58807,-1.79518 -2.69277,0.30952 2.38325,-1.79518 z m 47.81973,5.66409 -0.27856,0.58807 0,0.58808 -0.30951,0.58807 0.27856,-0.58807 0,-0.58808 0.30951,-0.58807 z m -1.48566,6.84023 -0.27856,0.86664 0,0.61902 -0.30951,0.58808 0.27856,-0.58808 0,-0.61902 0.30951,-0.86664 z m 11.91624,4.45698 0,0.86664 -1.79517,-0.27856 1.79517,-0.58808 z m 54.07189,2.3523 0.58808,1.2071 -1.48566,0.27856 0.89758,-1.48566 z m -67.47379,0.30951 -0.27856,0.58808 0,1.2071 -0.30952,0.86664 0.27857,-0.86664 0,-1.2071 0.30951,-0.58808 z m -1.48566,8.3259 -0.27856,0.58807 0,0.58808 -0.30952,0.89759 0.27856,-0.89759 0,-0.58808 0.30952,-0.58807 z m -46.9531,4.45698 -0.86663,0.89759 0.58807,1.17615 0.27856,-2.07374 z m 9.25444,0.58808 1.17615,0.89759 -1.17615,1.17614 0,-2.07373 z m 39.18432,0.89759 0.58807,0.27856 3.59035,0 0.58808,0.30951 -0.58808,-0.27856 -3.59035,0 -0.58807,-0.30951 z m 23.18251,1.48566 0.58807,0.27856 5.94265,0 0.58807,0.30951 -0.58807,-0.27856 -5.94265,0 -0.58807,-0.30951 z m -26.15383,0.30951 -0.27857,0.58807 0,1.48567 -0.30951,0.58807 0.27856,-0.58807 0,-1.48567 0.30952,-0.58807 z m -1.48567,9.19253 -0.27856,0.58807 0,1.48567 -0.30951,0.58807 0.27856,-0.58807 0,-1.48567 0.30951,-0.58807 z m 78.18294,4.45698 0,2.38325 -1.48566,-1.2071 1.48566,-1.17615 z m 13.03049,1.17615 2.10469,1.79518 -1.2071,2.38325 0.89758,0.58807 0.58808,-2.97132 -2.38325,-1.79518 z m -92.69909,4.17843 -0.27856,0.58807 0,1.48566 -0.30951,0.58808 0.27856,-0.58808 0,-1.48566 0.30951,-0.58807 z m 96.28944,2.07373 2.66181,2.38325 0,1.76422 0.30951,-2.35229 -2.97132,-1.79518 z m -5.94265,1.48566 -1.2071,2.97133 2.07374,1.17615 0.89759,-1.76423 -1.76423,-2.38325 z m 2.3523,4.14748 -1.17615,0.89758 1.17615,1.48566 0.61903,-0.89758 -1.2071,0 0.58807,-1.48566 z m -94.18475,3.00227 -0.27856,0.58807 0,1.48567 -0.30951,0.58807 0.27856,-0.58807 0,-1.48567 0.30951,-0.58807 z m 79.32814,2.07374 -12.47337,2.35229 -1.17615,3.28084 -2.97132,0.58807 4.14747,-0.27856 5.35457,-3.59035 3.86891,0.30952 1.17615,0.58807 -2.38325,0.58807 1.48566,0.89759 7.73782,1.48566 5.63314,1.2071 2.69276,3.83796 3.86891,0.61903 0.58807,1.17615 -2.69276,2.38325 11.88529,-0.30952 3.86891,-1.76422 -7.11879,-1.79518 0,-2.07373 -5.04506,-0.58808 -12.78288,-7.4283 -0.89759,-0.30952 -4.76649,-1.17614 z m -8.01639,5.94264 0,2.07374 2.07374,-0.30952 -0.86664,-1.48566 -1.2071,-0.27856 z m 43.08419,2.3523 -2.66181,1.48566 2.38325,0 0.27856,-1.48566 z m -130.11919,0.89759 2.38325,0 0.58807,0.89758 -2.97132,-0.89758 z m 14.23759,0.58807 -0.27856,0.89759 0,2.07373 -0.30951,0.61903 0.27856,-0.61903 0,-2.07373 0.30951,-0.89759 z m 117.0887,4.7665 -2.69276,1.48566 3.28083,0.89759 -0.30951,2.07373 2.07373,2.07374 -8.01638,-0.27856 -1.17615,1.17615 2.66181,1.79517 8.01639,-1.2071 2.97132,2.69276 0.89759,-1.79517 2.07373,-2.07374 8.91397,0.58808 1.2071,-1.79518 -5.66408,-2.07373 1.79517,-1.17615 -2.38325,0.27856 -1.17615,-1.76422 -12.47336,-0.89759 z m -126.8693,1.79517 2.87846,1.70232 0.40237,0.0619 -0.30951,0 -0.0929,-0.0619 -1.70232,-0.21666 -0.27856,1.48567 -0.89758,-2.97133 z m 158.65626,4.14747 -7.14974,0.58808 0.30951,1.79517 5.35457,-0.30951 1.48566,-2.07374 z m -49.33634,1.79518 -6.53072,0.27856 2.66181,2.38325 3.59035,0 3.5594,-0.58808 -3.28084,-2.07373 z m 67.75236,5.63313 -1.48567,1.17615 0.89759,1.2071 1.76422,-1.2071 -1.17614,-1.17615 z m -138.13557,2.38325 2.97132,2.66181 -3.28084,-0.89759 0.30952,-1.76422 z m 28.22757,19.3136 0.58807,1.48566 -2.07374,-0.89759 1.48567,-0.58807 z m 2.07373,1.76422 4.45699,5.07601 -4.17843,-1.48566 -0.27856,-3.59035 z m 111.98174,2.69276 -2.97133,0.89759 0.89759,1.76422 -2.07373,1.48567 4.14747,-0.89759 0,-3.24989 z m -5.9117,5.63314 1.48566,4.76649 2.07374,0.27857 -10.67819,4.17842 -3.28084,1.48566 -3.28083,-1.2071 -3.24989,1.48566 -5.04506,6.84024 1.48566,-4.45699 3.24989,-2.66181 3.5594,-1.2071 3.28083,0.89759 11.29722,-5.04506 0,-1.48566 -0.89759,-3.86891 z m -1.17615,9.50204 -0.30951,4.45699 -0.89759,-3.83796 1.2071,-0.61903 z m 34.17022,9.81156 0.27856,1.79517 -2.07374,0.58808 1.79518,-2.38325 z m 22.25397,18.41601 -2.97132,1.2071 1.48566,0.89759 1.48566,-2.10469 z m -187.50286,8.32589 -1.17615,0.89759 2.38325,2.66181 -2.07374,1.2071 2.07374,0.58808 1.48566,-0.89759 -2.69276,-4.45699 z m 127.48832,0.58808 9.50205,4.45698 0.031,0 6.80928,7.42831 6.84023,-0.58807 -0.89758,0.89758 -4.73555,-0.30951 -1.2071,0.61903 -8.01638,3.55939 -2.01183,-0.89758 -0.64998,-0.30952 2.04278,0.89759 0.031,0 4.42603,-1.76422 0.61902,-1.79518 3.5594,-0.30951 -2.66181,-0.58807 -0.031,0 -4.45698,-6.53072 -8.91397,-4.14748 -12.16386,0.58808 2.38325,-0.89759 9.50204,-0.30951 z m 47.54117,1.48566 -4.45698,3.28084 -1.48566,1.17614 -3.5594,0.61903 -2.04279,5.19981 -0.0619,0.12381 0.89759,-5.63313 0.031,0 2.04279,0 -3.83796,-0.30952 2.35229,-0.27856 -2.04278,-0.89758 -4.7665,3.28083 -3.21893,-0.58807 3.21893,0.27856 2.97133,-2.97132 4.73554,-0.30952 1.48566,0.30952 0.0309,0 -0.30951,1.48566 1.48566,-0.30952 6.53072,-4.45698 z m 8.3259,0 -1.48566,2.10469 0.58807,1.17615 -1.70232,-2.87847 -0.0619,0.0309 -0.30952,2.25944 -0.89758,-2.07373 1.2071,-0.18571 0,-0.12381 0.0619,0.0929 2.59991,-0.40237 z m -25.25625,0.61903 2.97133,0.27856 0.58807,1.48566 -3.5594,-1.76422 z m 65.55482,1.08329 -0.18571,0.40237 0,5.04506 -0.30951,0.89758 0.27856,-0.89758 0,-5.04506 0.21666,-0.40237 z m -69.42373,4.24033 0.24761,0.031 -3.43559,3.46654 -0.30951,0.27856 3.49749,-3.77605 z m 0.30951,0 0.21666,0.031 -0.24761,0 0.031,-0.031 z m -34.47972,2.69276 4.45698,4.73554 5.66409,2.10469 2.56895,-1.82613 -4.64269,3.59035 -0.031,0 -0.30951,-1.48566 0.031,0 1.17615,-0.58807 -4.45699,-1.79518 -1.48566,-0.58807 -0.58807,0.89759 -2.10469,-3.5594 -3.24989,-0.89759 -5.94264,0.58808 -3.83796,4.45698 -0.031,0 -5.04506,0 -1.45471,2.07374 1.1452,0.61902 -0.89759,0.52617 -1.1452,0.95949 -0.18571,-0.21666 -0.031,0 -0.37141,0.21666 -0.0309,0 -1.79518,-2.10468 -5.32362,-0.27857 -0.031,0 -1.48566,-2.38324 -5.57123,1.17614 1.73327,-0.86663 -1.1452,-0.30951 2.04279,0.30951 2.94037,-0.61903 0.031,0 1.48566,2.38325 5.63313,0.30951 0.031,0 1.88802,2.16659 1.33091,-0.74283 0.15476,-0.1238 -0.12381,0.0619 0.58808,-0.46427 -1.17615,-0.30951 -0.0309,0 1.79517,-2.66181 5.35457,-0.30951 3.5594,-4.14748 8.91397,-0.89758 z m -68.34043,3.55939 0.27856,1.17615 0.61903,-0.58807 0.58807,-0.58808 -0.58807,0 -0.89759,0 z m 164.01084,18.72553 -0.58808,0.30951 -0.89758,0 -0.58808,0.27856 0.58808,-0.30951 0.89758,0 0.58808,-0.27856 z m -10.39963,1.76422 1.17615,0 0,0.031 -1.17615,0 -0.58808,0.27857 0.58808,-0.30952 z m -7.42831,1.2071 -0.58807,0.30952 -1.79518,0 0,-0.031 1.79518,0 0.58807,-0.27856 z m -12.78288,1.76423 1.79517,0 0,0.0309 -1.79517,0 -0.58807,0.27856 0.58807,-0.30951 z m 35.37732,0 0,1.2071 -0.30952,0.58807 0.27856,-0.58807 0,-1.17615 0.031,-0.0309 z m -44.78651,1.29995 -0.40237,0.21666 -1.76422,0 -0.40237,0.18571 0.40237,-0.21666 1.76422,0 0.40237,-0.18571 z m -12.56622,1.39281 -0.58807,0.30951 -2.38325,0 -0.58808,0.27856 0.58808,-0.30951 2.38325,0 0.58807,-0.27856 z m -15.16613,1.48566 -0.58807,0.30951 -2.97132,0 -0.58808,0.27856 0.58808,-0.30951 2.97132,0 0.58807,-0.27856 z m -23.46107,1.76422 3.86891,0 -0.0309,0.031 -3.83796,0 -0.40236,0.18571 0.40236,-0.21666 z m 94.77283,3.28084 -0.27857,0.58807 0,0.58808 -0.031,0.0309 0,-0.61903 0.30952,-0.58807 z m -77.2544,3.55939 -0.27856,0.89759 0,2.97132 -0.30952,0.58808 0.27856,-0.58808 0,-2.97132 0.30952,-0.89759 z m 75.49017,5.04506 0,1.2071 -0.30951,0.58808 0.27856,-0.58808 0,-1.17615 0.031,-0.031 z m -1.2071,6.56168 -0.27856,0.58807 0,0.58807 -0.30951,0.58808 0.27856,-0.58808 0,-0.58807 0.30951,-0.58807 z m -75.76873,4.45698 -0.27857,0.58807 0,1.79518 -0.30951,0.58807 0.27856,-0.61902 0,-1.76423 0.30952,-0.58807 z m -42.77468,0.86664 1.48567,0.30951 0.30951,0 3.86891,3.28083 -1.48566,1.48567 -0.58808,-1.79518 -1.2071,0.58808 -2.97132,-1.48567 0.58807,-2.38324 z m 117.05775,1.2071 -0.27856,0.58807 0,0.58807 -0.21666,0.40237 0.18571,-0.40237 0,-0.58807 0.30951,-0.58807 z m -18.1065,1.17614 0.89759,2.38325 -0.89759,0.89759 -1.17615,0 1.17615,-2.07374 -1.17615,0.58808 1.17615,-1.79518 z m -87.65403,8.3259 0.58808,4.14747 -1.48566,-1.76422 0.89758,-2.38325 z m 29.99179,0.89759 -0.27856,0.58807 0,1.2071 -0.30951,0.58807 0.27856,-0.61902 0,-1.17615 0.30951,-0.58807 z m 54.69092,0.27856 -0.27856,0.89758 0.86663,1.2071 -1.76422,-1.48566 -1.2071,0.86664 1.48566,2.38325 -1.17615,-0.89759 -1.17615,0.89759 1.17615,-1.17615 -0.89758,-1.79518 2.97132,-0.89758 z m -56.17658,10.12107 -0.27856,0.58807 0,1.2071 -0.30951,0.58808 0.27856,-0.61903 0,-1.17615 0.30951,-0.58807 z m 42.52706,2.07373 -0.30951,1.17615 -2.07374,-0.86663 2.38325,-0.30952 z m -44.32223,7.42831 0.031,0 0,1.17615 -0.30951,0.61902 0.27856,-0.61902 0,-1.17615 z m -1.17615,7.11879 -0.27856,0.61903 0,1.17615 -0.30951,0.58807 0.27856,-0.58807 0,-1.17615 0.30951,-0.61903 z m -1.48566,7.42831 -0.27856,0.61903 0,0.58807 -0.30952,0.58808 0.27857,-0.58808 0,-0.58807 0.30951,-0.61903 z m -1.48566,6.84024 -0.27856,0.58807 0,0.61903 -0.24762,0.64997 0.21666,-0.64997 0,-0.58808 -2.66181,0 -0.58807,0.27856 0.58807,-0.30951 2.66181,0 0.30952,-0.58807 z m -19.90168,1.79517 -0.58807,0.30951 -4.45699,0 0,-0.0309 4.45699,0 0.58807,-0.27856 z m 10.70915,1.48566 -2.07374,1.17615 -0.89759,-0.58807 2.97133,-0.58808 z m 5.91169,8.60446 0.0309,0 0,0.58807 -0.0309,0.031 0,-0.61902 z m -1.45471,5.04506 0,0.89758 -0.21666,0.40237 0.18571,-0.40237 0,-0.86663 0.0309,-0.031 z m -1.51661,4.76649 0.031,0 0,0.58808 -0.031,0 0,-0.58808 z m -1.17615,4.45699 -0.27856,0.89759 -0.30952,0.58807 0.27857,-0.58807 0.30951,-0.89759 z m -43.05323,10.39963 1.76422,0.89759 -1.76422,0.27856 0,-1.17615 z m -3.86891,0.58807 0.89758,0.89759 -1.48566,0.30951 0.58808,-1.2071 z m -7.73782,13.95903 1.2071,0 -1.2071,0.89759 0,-0.89759 z m 5.66408,0.30951 1.48566,0 -2.38325,1.17615 0.89759,-1.17615 z m -1.79517,4.45699 0.89758,0.89759 0.30952,-0.89759 0.86663,1.48566 -2.35229,-0.30951 0.27856,-1.17615 z m 85.54934,2.07373 -2.66181,0.30952 2.07373,0.89758 0.58808,-1.2071 z m -87.035,1.48567 3.55939,0.30951 -2.97132,0.27856 0,0.61903 -0.58807,-1.2071 z m -6.25216,0.30951 0,0.58807 0.89758,-0.58807 -0.89758,0 z m 46.0555,0 -0.89758,1.17615 -2.38325,0.58807 0.61902,0.61903 1.48566,-0.89759 1.17615,0 -0.58807,-0.58807 3.24988,-0.30952 0,-0.58807 -1.48566,0.58807 -1.17615,-0.58807 z m -2.97132,0.27856 -1.79517,0.30951 1.2071,0.58808 -0.30952,0 -2.97132,0.89758 2.97132,-0.30951 2.97133,-1.48566 -2.07374,0 z m -25.56576,4.17842 -4.73554,0.58808 -0.30952,1.17615 2.97133,0 -2.38325,1.2071 1.42376,0.30951 -1.11425,0.58807 -2.66181,-0.89758 1.76422,0.89758 -1.76422,0.27856 3.83796,0 0,-0.86663 1.2071,0.27856 -1.2071,0.58807 2.10469,0 4.45698,0 4.45698,-0.89758 -6.25215,-1.17615 -1.79518,-2.07374 z m -0.86663,4.14747 -4.17843,0.58808 1.2071,0.61902 0,-0.30951 1.36186,-0.24761 -0.18571,-0.0619 1.79518,-0.58808 z m -1.60947,0.64998 0.30951,0.12381 0.0929,-0.18571 -0.40237,0.0619 z m 0.30951,0.12381 -0.18571,0.43331 2.07374,0.27857 -1.88803,-0.71188 z m -4.64269,-0.77379 0,-0.58807 -2.97132,0.58807 2.97132,0 z m -9.81156,-3.24988 1.76423,0.58807 2.38325,0.58808 -4.14748,-1.17615 z m 4.45699,1.17615 -1.79518,0.58807 1.2071,0.58808 1.17615,-0.58808 -0.89758,0.58808 2.38324,-0.58808 -2.07373,-0.58807 z m 6.84023,0 -1.2071,0.89759 1.48566,0.27856 -0.27856,-1.17615 z m -3.28083,0.89759 -0.30952,0.27856 1.79518,0.30951 -1.48566,-0.58807 z"
         id="path7634"
         inkscape:connector-curvature="0" />
      <path
         style="fill:#396733;fill-opacity:1;fill-rule:evenodd;stroke:#000000;stroke-width:0;stroke-linecap:butt;stroke-linejoin:miter;stroke-miterlimit:4;stroke-dasharray:none;stroke-opacity:1"
         d="m 151.553,36.120569 -1.79639,1.79316 1.48442,-0.30794 2.10673,-2.38382 -1.79476,0.8986 z"
         id="path3206"
         sodipodi:nodetypes="ccccc"
         inkscape:connector-curvature="0" />
    </g>
  </g>
</svg>
